# Blender v2.70 (sub 0) OBJ File: 'Mirror.blend'
# www.blender.org
v 1.000000 0.900000 -0.000001
v 1.361242 0.832472 -0.000001
v 1.673696 0.639009 -0.000002
v 1.895163 0.345738 -0.000002
v 1.995734 -0.007732 -0.000002
v 0.004266 -0.007731 0.000001
v 0.104837 0.345739 0.000001
v 0.326305 0.639009 0.000000
v 0.638759 0.832473 -0.000000
v 1.000000 0.900000 -0.000001
v 1.361242 0.832472 -0.000001
v 1.673696 0.639009 -0.000002
v 1.895163 0.345738 -0.000002
v 1.995734 -0.007732 -0.000002
v 0.004266 -0.007731 0.000001
v 0.104837 0.345739 0.000001
v 0.326305 0.639009 0.000000
v 0.638759 0.832473 -0.000000
v 1.000000 0.900509 0.005203
v 1.361242 0.832981 0.005202
v 1.673696 0.639518 0.005202
v 1.895163 0.346247 0.005202
v 1.995734 -0.007223 0.005202
v 0.004266 -0.007223 0.005205
v 0.104837 0.346248 0.005205
v 0.326305 0.639518 0.005204
v 0.638759 0.832981 0.005204
v 1.000000 0.871462 0.005203
v 1.334870 0.808864 0.005203
v 1.624515 0.629524 0.005202
v 1.829815 0.357662 0.005202
v 1.923044 0.029996 0.005202
v 0.076956 0.029997 0.005205
v 0.170185 0.357663 0.005205
v 0.375486 0.629524 0.005204
v 0.665130 0.808864 0.005204
v 1.000000 0.871462 0.011648
v 1.334870 0.808864 0.011647
v 1.624515 0.629524 0.011647
v 1.829815 0.357662 0.011647
v 1.923044 0.029996 0.011647
v 0.076956 0.029997 0.011650
v 0.170185 0.357663 0.011649
v 0.375486 0.629524 0.011649
v 0.665130 0.808864 0.011648
vn 0.000002 0.000001 1.000000
vn 0.182907 -0.978466 0.095649
vn 0.000000 0.000000 1.000000
vn -0.000002 -0.000001 -1.000000
vn 0.524623 -0.847296 0.082822
vn 0.796636 -0.601592 0.058812
vn 0.961482 -0.273565 0.026742
vn -0.000000 0.995256 -0.097296
vn -0.961482 -0.273565 0.026744
vn -0.796636 -0.601592 0.058804
vn -0.524624 -0.847296 0.082822
vn -0.182907 -0.978466 0.095648
vn 0.183749 -0.982973 0.000000
vn 0.526432 -0.850218 0.000000
vn 0.798017 -0.602635 0.000000
vn 0.961825 -0.273663 0.000000
vn 0.000000 1.000000 0.000000
vn -0.961826 -0.273663 0.000000
vn -0.798017 -0.602634 0.000000
vn -0.526432 -0.850217 0.000000
vn -0.183749 -0.982973 0.000000
vn 0.524622 -0.847295 0.082838
vn 0.796636 -0.601592 0.058804
vn 0.961481 -0.273566 0.026744
vn -0.000000 0.995255 -0.097296
vn -0.961481 -0.273566 0.026742
vn -0.524623 -0.847295 0.082838
vn 0.961826 -0.273663 0.000000
vn -0.798018 -0.602634 0.000000
s off
f 8//1 4//1 3//1
f 18//2 10//2 19//2
f 1//3 10//3 18//3
f 9//3 18//3 17//3
f 8//3 17//3 16//3
f 7//3 16//3 15//3
f 6//3 15//3 14//3
f 5//3 14//3 13//3
f 4//3 13//3 12//3
f 3//3 12//3 11//3
f 2//3 11//3 10//3
f 27//4 19//4 28//4
f 17//5 18//5 27//5
f 16//6 17//6 26//6
f 15//7 16//7 25//7
f 15//8 24//8 23//8
f 14//9 23//9 22//9
f 13//10 22//10 21//10
f 12//11 21//11 20//11
f 11//12 20//12 19//12
f 26//4 27//4 36//4
f 25//4 26//4 35//4
f 24//4 25//4 34//4
f 23//4 24//4 33//4
f 23//4 32//4 31//4
f 22//4 31//4 30//4
f 21//4 30//4 29//4
f 20//4 29//4 28//4
f 36//13 28//13 37//13
f 36//14 45//14 44//14
f 34//15 35//15 44//15
f 33//16 34//16 43//16
f 33//17 42//17 41//17
f 31//18 32//18 41//18
f 30//19 31//19 40//19
f 29//20 30//20 39//20
f 29//21 38//21 37//21
f 43//4 44//4 39//4
f 3//1 2//1 1//1
f 1//1 9//1 8//1
f 8//1 7//1 6//1
f 6//1 5//1 4//1
f 1//1 8//1 3//1
f 6//1 4//1 8//1
f 27//2 18//2 19//2
f 9//3 1//3 18//3
f 8//3 9//3 17//3
f 7//3 8//3 16//3
f 6//3 7//3 15//3
f 5//3 6//3 14//3
f 4//3 5//3 13//3
f 3//3 4//3 12//3
f 2//3 3//3 11//3
f 1//3 2//3 10//3
f 36//4 27//4 28//4
f 26//22 17//22 27//22
f 25//23 16//23 26//23
f 24//24 15//24 25//24
f 14//25 15//25 23//25
f 13//26 14//26 22//26
f 12//10 13//10 21//10
f 11//27 12//27 20//27
f 10//12 11//12 19//12
f 35//4 26//4 36//4
f 34//4 25//4 35//4
f 33//4 24//4 34//4
f 32//4 23//4 33//4
f 22//4 23//4 31//4
f 21//4 22//4 30//4
f 20//4 21//4 29//4
f 19//4 20//4 28//4
f 45//13 36//13 37//13
f 35//14 36//14 44//14
f 43//15 34//15 44//15
f 42//28 33//28 43//28
f 32//17 33//17 41//17
f 40//18 31//18 41//18
f 39//29 30//29 40//29
f 38//20 29//20 39//20
f 28//21 29//21 37//21
f 37//4 38//4 39//4
f 41//4 43//4 40//4
f 41//4 42//4 43//4
f 45//4 37//4 44//4
f 44//4 37//4 39//4
f 43//4 39//4 40//4
