# Blender v2.70 (sub 0) OBJ File: 'Nadel.blend'
# www.blender.org
mtllib Needle.mtl
v -0.458642 0.000000 0.458642
v 0.458642 0.000000 0.458642
v -0.045864 0.000000 -2.705985
v 0.045864 0.000000 -2.705985
v -0.077817 0.042423 0.446268
v 0.077817 0.042423 0.446268
v -0.007782 0.042423 -2.605534
v 0.007782 0.042423 -2.605534
vn 0.000000 -1.000000 0.000000
vn 0.000000 1.000000 -0.000000
vn 0.000000 0.921215 -0.389054
vn 0.724169 0.689422 -0.016619
vn 0.000000 0.280003 0.959999
vn -0.111167 0.993696 -0.014500
vn 0.111167 0.993696 -0.014500
vn -0.724169 0.689422 -0.016619
usemtl None
s off
f 3//1 4//1 2//1
f 6//2 8//2 7//2
f 3//3 7//3 8//3
f 4//4 8//4 6//4
f 2//5 6//5 5//5
f 3//6 1//6 5//6
f 1//1 3//1 2//1
f 5//2 6//2 7//2
f 4//3 3//3 8//3
f 2//7 4//7 6//7
f 1//5 2//5 5//5
f 7//8 3//8 5//8
