# Blender v2.70 (sub 0) OBJ File: 'Hochofen.blend'
# www.blender.org
mtllib Hochofen.mtl
v 0.000000 0.448971 0.645909
v -0.075780 0.441507 0.645909
v -0.148648 0.419403 0.645909
v -0.215804 0.383507 0.645909
v -0.274666 0.335200 0.645909
v -0.322973 0.276338 0.645909
v -0.358869 0.209182 0.645909
v -0.380973 0.136314 0.645909
v 0.380973 0.136314 0.645909
v 0.358869 0.209183 0.645909
v 0.322973 0.276338 0.645909
v 0.274666 0.335200 0.645909
v 0.215804 0.383508 0.645909
v 0.148648 0.419403 0.645909
v 0.075780 0.441507 0.645909
v -0.975566 0.060534 0.648399
v 0.975566 0.060534 0.648399
v -0.975566 0.060534 -0.648399
v 0.975566 0.060534 -0.648399
v -0.975566 1.049993 0.648399
v 0.975566 1.049993 0.648399
v -0.975566 1.049993 -0.648399
v 0.975566 1.049993 -0.648399
v -0.469142 1.500419 0.311810
v 0.469142 1.500419 0.311810
v -0.469142 1.500419 -0.651475
v 0.469142 1.500419 -0.651475
v -0.222698 2.312661 -0.232289
v 0.222698 2.312661 -0.232289
v -0.222698 2.312661 -0.640869
v 0.222698 2.312661 -0.650127
v -0.083090 2.689246 -0.325078
v 0.083090 2.689246 -0.325078
v -0.083090 2.689246 -0.639515
v 0.083090 2.689246 -0.645947
v -0.054157 2.689246 -0.380384
v 0.054157 2.689246 -0.380384
v -0.054157 2.689246 -0.585329
v 0.054157 2.689246 -0.589521
v -0.168675 2.315363 -0.302046
v 0.168675 2.315363 -0.302046
v -0.168675 2.315363 -0.585329
v 0.168675 2.315363 -0.589521
v -0.395465 1.503501 -0.585329
v 0.395465 1.503501 -0.589521
v -0.395465 1.505993 0.242756
v 0.395465 1.505993 0.242756
v -0.862981 1.060488 -0.585329
v 0.862981 1.060488 -0.589521
v -0.862981 1.062980 0.556557
v 0.862981 1.062980 0.556557
v 0.390800 0.060534 0.648399
v -0.390800 0.060534 0.648399
v 0.000000 0.448971 0.645909
v -0.075780 0.441507 0.645909
v -0.148648 0.419403 0.645909
v -0.215804 0.383507 0.645909
v -0.274666 0.335200 0.645909
v -0.322973 0.276338 0.645909
v -0.358869 0.209182 0.645909
v -0.380973 0.136314 0.645909
v 0.380973 0.136314 0.645909
v 0.358869 0.209183 0.645909
v 0.322973 0.276338 0.645909
v 0.274666 0.335200 0.645909
v 0.215804 0.383508 0.645909
v 0.148648 0.419403 0.645909
v 0.075780 0.441507 0.645909
v 0.390800 0.060534 0.648399
v -0.390800 0.060534 0.648399
v 0.000000 0.448971 0.377840
v -0.075780 0.441507 0.377840
v -0.148648 0.419403 0.377840
v -0.215804 0.383507 0.377840
v -0.274666 0.335200 0.377840
v -0.322973 0.276338 0.377840
v -0.358869 0.209182 0.377840
v -0.380973 0.136314 0.377840
v 0.380973 0.136314 0.377840
v 0.358869 0.209183 0.377840
v 0.322973 0.276338 0.377840
v 0.274666 0.335200 0.377840
v 0.215804 0.383508 0.377840
v 0.148648 0.419403 0.377840
v 0.075780 0.441507 0.377840
v 0.390800 0.060534 0.380330
v -0.390800 0.060534 0.380330
v 0.000000 0.448971 0.124550
v -0.075780 0.441507 0.124550
v -0.148648 0.419403 0.124550
v -0.215804 0.383507 0.124550
v -0.274666 0.335200 0.124550
v -0.322973 0.276338 0.124550
v -0.358869 0.209182 0.124550
v -0.380973 0.136314 0.124550
v 0.380973 0.136314 0.124550
v 0.358869 0.209183 0.124550
v 0.322973 0.276338 0.124550
v 0.274666 0.335200 0.124550
v 0.215804 0.383508 0.124550
v 0.148648 0.419403 0.124550
v 0.075780 0.441507 0.124550
v 0.390800 0.060534 0.127040
v -0.390800 0.060534 0.127040
v 0.936465 0.060534 0.127040
v -0.936465 0.060534 0.127040
v 0.936465 0.496254 0.127040
v -0.936465 0.496254 0.127040
v 0.936465 0.496254 -0.590616
v -0.936465 0.496254 -0.590616
v 0.936465 0.064805 -0.590616
v -0.936465 0.064805 -0.590616
v 0.380973 0.136314 0.414551
v 0.358869 0.209183 0.414551
v -0.322973 0.276338 0.414551
v -0.358869 0.209182 0.414551
v -0.215804 0.383507 0.414551
v -0.274666 0.335200 0.414551
v 0.148648 0.419403 0.414551
v 0.075780 0.441507 0.414551
v -0.075780 0.441507 0.414551
v -0.148648 0.419403 0.414551
v 0.274666 0.335200 0.414551
v 0.215804 0.383508 0.414551
v 0.322973 0.276338 0.414551
v -0.380973 0.136314 0.414551
v 0.000000 0.448971 0.414551
v -0.390800 0.060534 0.417041
v 0.390800 0.060534 0.417041
vt 0.257272 0.349548
vt 0.185706 0.349948
vt 0.184899 0.205530
vt 0.808387 0.424086
vt 0.650469 0.611633
vt 0.357892 0.611633
vt 0.808387 0.012097
vt 0.199984 0.424086
vt 0.999913 0.000087
vt 0.999913 0.762956
vt 0.000088 0.762956
vt 0.000087 0.762956
vt 0.000087 0.000087
vt 0.573639 0.949833
vt -0.025362 0.111781
vt 0.693380 0.110549
vt 0.695597 0.400754
vt 0.850224 0.000811
vt 0.668857 0.291094
vt 0.332958 0.291014
vt 0.962507 0.001763
vt 0.777543 0.289500
vt 0.248193 0.289500
vt 0.364304 0.143048
vt 0.510428 0.143047
vt 0.464697 0.302921
vt 0.161703 0.401669
vt 0.695627 0.840228
vt 0.580508 0.799110
vt 0.478546 0.725232
vt 0.254021 0.725232
vt 0.808352 0.012129
vt 0.796159 0.197971
vt 0.693428 0.165615
vt 0.464043 0.840625
vt 0.693676 1.047175
vt 0.530481 0.995318
vt 0.470990 0.995304
vt 0.427556 0.930413
vt 0.254764 0.930413
vt 0.504007 0.110614
vt 0.801919 0.056812
vt 0.801919 0.215388
vt 0.999941 0.000059
vt 0.824110 0.059984
vt 0.172402 0.059985
vt 0.000059 0.344247
vt 0.000059 0.000059
vt 0.172403 0.284319
vt 0.811048 0.284317
vt 0.499705 0.376496
vt 0.000000 0.376496
vt 0.000000 0.000000
vt 0.499705 0.476178
vt 1.000000 0.376496
vt 1.000000 0.670143
vt 0.000000 0.747502
vt 0.000000 0.479092
vt 0.754556 0.012097
vt 0.754556 0.169467
vt 0.480713 0.124347
vt 0.459095 0.541361
vt 1.000000 0.457793
vt 1.000000 0.749234
vt 0.000062 0.000062
vt 0.999938 0.000062
vt 0.729103 0.386202
vt 0.000000 0.456434
vt 0.302041 0.000000
vt 0.461419 0.000000
vt 0.459095 0.915586
vt 0.302041 0.915586
vt 0.000000 0.459152
vt 1.000000 0.763002
vt 0.000000 0.763002
vt 0.500000 0.299534
vt 1.000000 0.000000
vt 0.665531 0.166412
vt 0.316071 0.114626
vt 0.334469 0.166412
vt 0.333654 0.499520
vt 0.332878 0.638199
vt 0.261312 0.637799
vt 0.334992 0.260267
vt 0.334367 0.371908
vt 0.262802 0.371507
vt 0.260274 0.886466
vt 0.188709 0.886866
vt 0.188331 0.819260
vt 0.335881 0.101281
vt 0.335502 0.168887
vt 0.263937 0.168487
vt 0.259385 0.727481
vt 0.187820 0.727881
vt 0.187195 0.616240
vt 0.258047 0.488227
vt 0.186482 0.488628
vt 0.332071 0.782617
vt 0.260505 0.782217
vt 0.262088 0.499120
vt 0.260505 0.927700
vt 0.188939 0.928100
vt 0.263426 0.259866
vt 0.259896 0.818860
vt 0.264315 0.100881
vt 0.264546 0.059647
vt 0.258761 0.615840
vt 0.603796 0.306754
vt 0.513563 0.306754
vt 0.513563 -0.001756
vt 0.770178 0.306754
vt 0.690444 0.306754
vt 0.690444 -0.001756
vt 0.537020 0.903126
vt 0.537020 0.594616
vt 0.599032 0.594616
vt 0.897026 0.306754
vt 0.839932 0.306754
vt 0.839932 -0.001756
vt 0.661129 0.903126
vt 0.661129 0.594616
vt 0.720922 0.594616
vt 0.477473 0.903126
vt 0.477473 0.594616
vt 0.353586 0.327788
vt 0.353586 0.636298
vt 0.274258 0.636298
vt 0.187744 0.327788
vt 0.187744 0.636298
vt 0.097369 0.636298
vt 0.603796 -0.001756
vt 0.770178 -0.001756
vt 0.599032 0.903126
vt 0.422681 0.903126
vt 0.422681 0.594616
vt 0.422681 0.327788
vt 0.422681 0.636298
vt 0.274258 0.327788
vt 0.187744 0.001276
vt 0.187744 0.283073
vt 0.097369 0.283073
vt 0.000076 0.000076
vt 0.999924 0.000076
vt 0.999924 0.576501
vt 0.999941 0.346612
vt 0.999924 0.576512
vt 0.000076 0.576512
vt 0.875299 0.134592
vt 0.875299 0.418157
vt 0.408250 0.418157
vt 0.408250 0.885205
vt 0.411030 0.418157
vt 0.691815 0.418157
vt 0.229526 0.658459
vt 0.267831 0.679354
vt 0.124702 0.944717
vt 0.408250 0.944720
vt 0.408250 0.708695
vt 0.124701 0.134592
vt 0.160346 0.506875
vt 0.155489 0.539653
vt 0.311533 0.384428
vt 0.267831 0.399954
vt 0.422681 0.309786
vt 0.422681 0.001276
vt 0.336111 0.928100
vt 0.264546 0.927700
vt 0.006116 0.633265
vt 0.006116 0.324755
vt 0.260505 0.059647
vt 0.256464 0.205130
vt 0.199984 0.012097
vt 0.690444 0.591583
vt 0.603796 0.591583
vt 0.603796 0.309787
vt 0.839932 0.591583
vt 0.770178 0.591583
vt 0.770178 0.309787
vt 0.140884 0.812649
vt 0.422681 0.812649
vt 0.422681 0.874746
vt 0.140884 0.691090
vt 0.140884 0.636298
vt 0.422681 0.283073
vt 0.353586 0.283073
vt 0.274258 0.001276
vt 0.274258 0.283073
vt 0.513563 0.591583
vt 0.513563 0.309786
vt 0.690444 0.309787
vt 0.140884 0.750637
vt 0.422681 0.750637
vt 0.839932 0.309787
vt 0.897026 0.309787
vt 0.140884 0.874746
vt 0.422681 0.934539
vt 0.422681 0.691090
vt 0.353586 0.001276
vt 0.422681 0.312819
vt 0.006116 -0.001756
vt 0.097369 0.001276
vt 0.199984 0.012098
vt 0.434741 0.949832
vt 0.151733 0.000645
vt 0.249883 0.001762
vt 0.410121 0.302912
vt 0.421059 0.799072
vt 0.701375 0.044486
vt 0.515836 1.047479
vt 0.504006 0.161586
vt 0.979902 0.344240
vt 0.499705 0.102596
vt 0.499705 0.570461
vt 0.499705 0.747502
vt 0.480713 0.057217
vt 0.459095 0.665667
vt 0.270893 0.386205
vt 0.461419 0.457793
vt 0.459095 0.457793
vt 0.576185 0.276734
vt 0.610604 0.249054
vt 0.389396 0.249054
vt 0.423814 0.276734
vt 0.538839 0.293779
vt 0.461161 0.293779
vt 0.640773 0.211803
vt 0.695257 0.058436
vt 0.700294 0.000000
vt 0.683928 0.114627
vt 0.359227 0.211803
vt 0.299706 0.000000
vt 0.304743 0.058435
vt 0.336111 0.060047
vt 0.897026 -0.001756
vt 0.720922 0.903126
vt 0.097369 0.327788
vt 0.000076 0.576502
vt 0.000059 0.346612
vt 0.408250 0.137372
vt 0.691815 0.885205
vt 0.358953 0.704443
vt 0.160346 0.572431
vt 0.174730 0.603950
vt 0.311533 0.694881
vt 0.198090 0.632998
vt 0.174730 0.475356
vt 0.408250 0.370619
vt 0.358952 0.374867
vt 0.408250 0.134595
vt 0.198089 0.446309
vt 0.229526 0.420848
vt 0.188939 0.060047
vt 0.897026 0.591583
vt 0.140884 0.934539
vt 0.006116 0.280040
vn -0.956940 -0.290286 0.000000
vn 0.000000 -0.006829 -0.999977
vn 0.000000 0.000000 -1.000000
vn 1.000000 0.000000 0.000000
vn -1.000000 0.000000 0.000000
vn 0.000000 0.013057 -0.999915
vn 0.664587 0.747211 0.000000
vn 0.000000 0.598599 0.801049
vn -0.664587 0.747211 0.000000
vn -0.020781 0.011298 -0.999720
vn 0.956923 0.290342 0.000000
vn 0.000000 0.556543 0.830819
vn -0.956923 0.290342 0.000000
vn 0.000000 1.000000 0.000002
vn 0.937642 0.347602 0.000000
vn 0.000000 0.239239 0.970961
vn -0.937642 0.347602 0.000000
vn 0.012426 -0.003806 0.999916
vn 0.000000 1.000000 0.000000
vn 0.000000 1.000000 -0.000002
vn -0.956155 -0.292863 0.000000
vn 0.000000 -0.205071 -0.978747
vn 0.956154 -0.292863 0.000000
vn 0.005300 0.001481 0.999985
vn 0.000000 -0.558401 -0.829571
vn -0.687829 -0.725871 0.001579
vn 0.687829 -0.725871 0.001585
vn 0.000000 -0.578018 -0.816024
vn 0.002429 0.002563 0.999994
vn -0.962912 -0.269814 0.000000
vn 0.962912 -0.269814 0.000000
vn 0.000000 -0.004142 0.999991
vn -0.003815 0.000000 0.999993
vn 0.004635 -0.002478 0.999986
vn 0.000000 0.000000 1.000000
vn 0.000000 -1.000000 0.000000
vn -0.079116 -0.996848 -0.005933
vn 0.881921 -0.471398 0.000000
vn 0.634394 -0.773010 0.000000
vn -0.290283 -0.956941 0.000000
vn 0.290284 -0.956941 0.000000
vn -0.634393 -0.773011 0.000000
vn -0.881921 -0.471398 0.000000
vn 0.956940 -0.290284 0.000000
vn 0.773010 -0.634394 0.000000
vn -0.098017 -0.995185 0.000000
vn 0.471396 -0.881921 0.000000
vn -0.471395 -0.881922 0.000000
vn 0.098018 -0.995185 0.000000
vn -0.773009 -0.634395 0.000000
vn 0.956940 -0.290285 0.000000
vn 0.773011 -0.634393 0.000000
vn 0.471397 -0.881921 0.000000
vn -0.773010 -0.634394 0.000000
vn -0.956940 -0.290285 0.000000
vn 0.881921 -0.471397 0.000000
vn -0.634392 -0.773011 0.000000
vn 0.000000 0.999982 0.005952
vn -0.003136 0.002574 -0.999992
vn 0.001757 0.017842 -0.999839
vn 0.003406 0.001821 -0.999993
vn 0.991697 -0.128596 0.000000
vn 0.991697 -0.128597 0.000000
vn -0.991697 -0.128596 0.000000
vn -0.991697 -0.128597 0.000000
vn 0.079116 -0.996848 -0.005933
vn 0.000000 -0.997279 0.073726
vn 0.290284 -0.956940 0.000000
vn 0.956941 -0.290284 0.000000
vn 0.773010 -0.634393 0.000000
vn -0.020782 -0.004647 -0.999773
vn -0.038674 -0.003245 -0.999247
vn 0.000000 1.000000 -0.000010
vn 0.000000 0.239240 0.970961
vn 0.038672 0.011845 0.999182
vn 0.000000 1.000000 0.000010
vn 0.956155 -0.292862 0.000000
vn 0.012425 -0.003471 0.999917
vn -0.688595 -0.725142 0.002172
vn 0.688600 -0.725139 0.002183
vn 0.000000 -0.578017 -0.816025
vn 0.005300 -0.005593 0.999970
vn -0.963127 -0.269046 0.000806
vn 0.963127 -0.269046 0.000810
vn -0.001240 -0.002321 0.999997
vn 0.001240 -0.002321 0.999997
vn -0.000855 -0.002825 0.999996
vn 0.000856 -0.002825 0.999996
vn -0.000354 -0.003571 0.999994
vn -0.001583 -0.001931 0.999997
vn 0.000000 0.032839 0.999461
vn 0.000353 -0.003571 0.999994
vn -0.004356 -0.001322 0.999990
vn -0.001934 -0.001588 0.999997
vn -0.004634 -0.002478 0.999986
vn 0.001583 -0.001931 0.999997
vn 0.001933 -0.001588 0.999997
vn 0.004356 -0.001322 0.999990
vn 0.003815 0.000000 0.999993
vn 0.108602 -0.994085 0.000000
vn -0.881920 -0.471399 0.000000
vn -0.023758 -0.029752 -0.999275
vn -0.002391 0.007884 -0.999966
vn -0.003746 0.001137 -0.999992
vn -0.002672 0.005001 -0.999984
vn -0.003406 0.001821 -0.999993
vn -0.002902 0.003536 -0.999990
vn -0.001757 0.017842 -0.999839
vn 0.002391 0.007884 -0.999966
vn 0.000000 0.052581 -0.998617
vn 0.000000 -0.032839 -0.999461
vn 0.002672 0.005001 -0.999984
vn 0.004676 0.001419 -0.999988
vn 0.002902 0.003536 -0.999990
vn 0.004311 0.000000 -0.999991
vn 0.003136 0.002574 -0.999992
vn -0.991697 -0.128598 0.000000
vn 0.000000 -0.997279 0.073725
vn -0.108602 -0.994085 0.000000
usemtl Material.001
s off
f 114/1/1 80/2/1 79/3/1
f 22/4/2 26/5/2 27/6/2
f 18/7/3 22/4/3 23/8/3
f 19/9/4 23/10/4 21/11/4
f 16/12/5 20/13/5 22/9/5
f 27/6/6 26/5/6 30/14/6
f 21/15/7 23/16/7 27/17/7
f 21/18/8 25/19/8 24/20/8
f 20/21/9 24/22/9 26/23/9
f 31/24/10 30/25/10 34/26/10
f 25/27/11 27/17/11 31/28/11
f 24/20/12 25/19/12 29/29/12
f 24/22/13 28/30/13 30/31/13
f 35/32/14 34/33/14 38/34/14
f 29/35/15 31/28/15 35/36/15
f 29/29/16 33/37/16 32/38/16
f 28/30/17 32/39/17 34/40/17
f 38/41/18 42/42/18 43/43/18
f 35/44/19 39/45/19 37/46/19
f 32/47/20 33/48/20 37/46/20
f 32/47/19 36/49/19 38/50/19
f 39/51/21 43/52/21 41/53/21
f 37/54/22 41/55/22 40/56/22
f 38/57/23 36/58/23 40/51/23
f 44/59/24 45/60/24 43/61/24
f 41/62/25 47/63/25 46/64/25
f 45/53/26 49/53/26 51/53/26
f 50/53/27 48/53/27 44/53/27
f 47/53/28 51/53/28 50/53/28
f 48/65/29 49/66/29 45/67/29
f 47/68/30 41/69/30 43/70/30
f 42/71/31 40/72/31 46/73/31
f 21/74/32 20/75/32 1/76/32
f 17/77/33 21/74/33 11/78/33
f 16/53/34 7/79/34 6/80/34
f 10/53/35 63/53/35 62/53/35
f 106/53/36 104/53/36 87/53/36
f 7/53/35 60/53/35 59/53/35
f 5/53/35 58/53/35 57/53/35
f 15/53/35 68/53/35 67/53/35
f 3/53/35 56/53/35 55/53/35
f 13/53/35 66/53/35 65/53/35
f 11/53/35 64/53/35 63/53/35
f 112/53/37 106/53/37 16/53/37
f 8/53/35 61/53/35 60/53/35
f 6/53/35 59/53/35 58/53/35
f 1/53/35 54/53/35 68/53/35
f 4/53/35 57/53/35 56/53/35
f 14/53/35 67/53/35 66/53/35
f 2/53/35 55/53/35 54/53/35
f 12/53/35 65/53/35 64/53/35
f 115/81/38 116/82/38 77/83/38
f 117/84/39 118/85/39 75/86/39
f 120/87/40 85/88/40 84/89/40
f 121/90/41 122/91/41 73/92/41
f 124/93/42 83/94/42 82/95/42
f 125/96/43 81/97/43 80/2/43
f 116/82/44 126/98/44 78/99/44
f 118/85/45 115/81/45 76/100/45
f 127/101/46 71/102/46 85/88/46
f 122/91/47 117/84/47 74/103/47
f 119/104/48 84/89/48 83/94/48
f 121/90/49 72/105/49 71/106/49
f 123/107/50 82/95/50 81/97/50
f 77/108/51 78/109/51 95/110/51
f 75/111/52 76/112/52 93/113/52
f 71/114/46 88/115/46 102/116/46
f 73/117/53 74/118/53 91/119/53
f 84/120/48 101/121/48 100/122/48
f 72/123/49 89/124/49 88/115/49
f 82/125/54 99/126/54 98/127/54
f 80/128/55 97/129/55 96/130/55
f 76/112/56 77/108/56 94/131/56
f 74/118/39 75/111/39 92/132/39
f 85/133/40 102/116/40 101/121/40
f 73/134/41 90/135/41 89/124/41
f 83/136/57 100/137/57 99/126/57
f 81/138/43 98/127/43 97/129/43
f 63/139/1 114/140/1 113/141/1
f 110/142/36 109/143/36 107/144/36
f 112/48/35 111/44/35 109/145/35
f 105/143/58 111/146/58 112/147/58
f 105/148/5 107/149/5 109/150/5
f 106/151/4 112/152/4 110/153/4
f 92/154/59 93/155/59 108/156/59
f 106/157/3 108/156/3 104/158/3
f 107/159/60 102/160/60 88/161/60
f 97/162/61 98/163/61 107/159/61
f 87/164/62 104/165/62 95/110/62
f 128/166/63 87/167/63 78/99/63
f 96/130/64 103/168/64 86/169/64
f 129/170/65 113/171/65 79/3/65
f 17/53/36 69/53/36 129/53/36
f 17/53/66 105/53/66 111/53/66
f 111/172/67 112/172/67 18/172/67
f 59/173/56 60/174/56 116/175/56
f 57/176/39 58/177/39 118/178/39
f 68/179/40 120/180/40 119/181/40
f 55/182/68 56/183/68 122/137/68
f 66/165/42 124/184/42 123/185/42
f 64/186/43 125/187/43 114/140/43
f 60/174/69 61/188/69 126/189/69
f 58/177/70 59/173/70 115/190/70
f 54/191/46 127/192/46 120/180/46
f 57/176/53 117/193/53 122/194/53
f 67/195/48 119/181/48 124/196/48
f 55/182/49 121/197/49 127/192/49
f 65/198/54 123/185/54 125/187/54
f 70/135/63 128/199/63 126/189/63
f 69/200/65 62/201/65 113/141/65
f 113/171/55 114/1/55 79/3/55
f 23/8/2 22/4/2 27/6/2
f 19/202/3 18/7/3 23/8/3
f 17/13/4 19/9/4 21/11/4
f 18/10/5 16/12/5 22/9/5
f 31/203/71 27/6/71 30/14/71
f 25/27/7 21/15/7 27/17/7
f 20/204/8 21/18/8 24/20/8
f 22/205/9 20/21/9 26/23/9
f 35/206/72 31/24/72 34/26/72
f 29/35/11 25/27/11 31/28/11
f 28/207/12 24/20/12 29/29/12
f 26/23/13 24/22/13 30/31/13
f 39/208/73 35/32/73 38/34/73
f 33/209/15 29/35/15 35/36/15
f 28/207/74 29/29/74 32/38/74
f 30/31/17 28/30/17 34/40/17
f 39/210/75 38/41/75 43/43/75
f 33/48/19 35/44/19 37/46/19
f 36/49/76 32/47/76 37/46/76
f 34/211/19 32/47/19 38/50/19
f 37/212/21 39/51/21 41/53/21
f 36/213/22 37/54/22 40/56/22
f 42/214/77 38/57/77 40/51/77
f 42/215/78 44/59/78 43/61/78
f 40/216/25 41/62/25 46/64/25
f 47/53/79 45/53/79 51/53/79
f 46/53/80 50/53/80 44/53/80
f 46/53/81 47/53/81 50/53/81
f 44/217/82 48/65/82 45/67/82
f 45/218/83 47/68/83 43/70/83
f 44/219/84 42/71/84 46/73/84
f 14/220/85 13/221/85 21/74/85
f 4/222/86 3/223/86 20/75/86
f 15/224/87 14/220/87 21/74/87
f 20/75/88 3/223/88 2/225/88
f 1/76/89 15/224/89 21/74/89
f 13/221/90 12/226/90 21/74/90
f 9/227/91 52/228/91 17/77/91
f 20/75/92 2/225/92 1/76/92
f 10/229/93 9/227/93 17/77/93
f 21/74/94 12/226/94 11/78/94
f 11/78/95 10/229/95 17/77/95
f 5/230/96 4/222/96 20/75/96
f 53/231/91 8/232/91 16/53/91
f 6/80/97 5/230/97 20/75/97
f 16/53/98 8/232/98 7/79/98
f 20/75/99 16/53/99 6/80/99
f 106/53/36 128/53/36 16/53/36
f 9/53/35 10/53/35 62/53/35
f 6/53/35 7/53/35 59/53/35
f 4/53/35 5/53/35 57/53/35
f 106/53/36 87/53/36 128/53/36
f 128/53/36 70/53/36 16/53/36
f 14/53/35 15/53/35 67/53/35
f 2/53/35 3/53/35 55/53/35
f 12/53/35 13/53/35 65/53/35
f 10/53/35 11/53/35 63/53/35
f 18/53/100 112/53/100 16/53/100
f 7/53/35 8/53/35 60/53/35
f 5/53/35 6/53/35 58/53/35
f 15/53/35 1/53/35 68/53/35
f 3/53/35 4/53/35 56/53/35
f 13/53/35 14/53/35 66/53/35
f 1/53/35 2/53/35 54/53/35
f 11/53/35 12/53/35 64/53/35
f 76/100/56 115/81/56 77/83/56
f 74/103/39 117/84/39 75/86/39
f 119/104/40 120/87/40 84/89/40
f 72/105/41 121/90/41 73/92/41
f 123/107/57 124/93/57 82/95/57
f 114/1/101 125/96/101 80/2/101
f 77/83/51 116/82/51 78/99/51
f 75/86/45 118/85/45 76/100/45
f 120/87/46 127/101/46 85/88/46
f 73/92/53 122/91/53 74/103/53
f 124/93/48 119/104/48 83/94/48
f 127/233/49 121/90/49 71/106/49
f 125/96/50 123/107/50 81/97/50
f 94/131/44 77/108/44 95/110/44
f 92/132/45 75/111/45 93/113/45
f 85/133/46 71/114/46 102/116/46
f 90/234/53 73/117/53 91/119/53
f 83/235/48 84/120/48 100/122/48
f 71/114/49 72/123/49 88/115/49
f 81/138/54 82/125/54 98/127/54
f 79/236/1 80/128/1 96/130/1
f 93/113/56 76/112/56 94/131/56
f 91/119/39 74/118/39 92/132/39
f 84/120/40 85/133/40 101/121/40
f 72/123/41 73/134/41 89/124/41
f 82/125/57 83/136/57 99/126/57
f 80/128/43 81/138/43 97/129/43
f 62/201/55 63/139/55 113/141/55
f 108/237/36 110/142/36 107/144/36
f 110/238/35 112/48/35 109/145/35
f 106/142/58 105/143/58 112/147/58
f 111/239/5 105/148/5 109/150/5
f 108/240/4 106/151/4 110/153/4
f 95/241/102 104/158/102 108/156/102
f 108/156/103 89/242/103 90/243/103
f 94/244/104 95/241/104 108/156/104
f 108/156/105 90/243/105 91/245/105
f 93/155/106 94/244/106 108/156/106
f 108/156/107 91/245/107 92/154/107
f 88/161/108 89/242/108 108/156/108
f 101/246/109 102/160/109 107/159/109
f 108/156/110 107/159/110 88/161/110
f 103/247/111 96/248/111 105/249/111
f 100/250/112 101/246/112 107/159/112
f 105/249/113 96/248/113 97/162/113
f 99/251/114 100/250/114 107/159/114
f 107/159/115 105/249/115 97/162/115
f 98/163/116 99/251/116 107/159/116
f 78/109/63 87/164/63 95/110/63
f 126/98/62 128/166/62 78/99/62
f 79/236/117 96/130/117 86/169/117
f 86/252/65 129/170/65 79/3/65
f 19/172/118 111/172/118 18/172/118
f 19/53/119 17/53/119 111/53/119
f 105/53/36 17/53/36 129/53/36
f 86/53/36 105/53/36 129/53/36
f 86/53/36 103/53/36 105/53/36
f 115/190/56 59/173/56 116/175/56
f 117/193/39 57/176/39 118/178/39
f 67/195/40 68/179/40 119/181/40
f 121/197/41 55/182/41 122/137/41
f 65/198/57 66/165/57 123/185/57
f 63/139/43 64/186/43 114/140/43
f 116/175/51 60/174/51 126/189/51
f 118/178/52 58/177/52 115/190/52
f 68/179/46 54/191/46 120/180/46
f 56/253/47 57/176/47 122/194/47
f 66/254/48 67/195/48 124/196/48
f 54/191/49 55/182/49 127/192/49
f 64/186/54 65/198/54 125/187/54
f 61/188/63 70/135/63 126/189/63
f 129/255/65 69/200/65 113/141/65
