# Blender v2.70 (sub 0) OBJ File: 'Christmasupdate.blend'
# www.blender.org
v 0.004865 0.011007 -0.390111
v 0.004865 0.011007 -0.392563
v 0.004865 0.011007 -0.392563
v -0.228837 0.011007 -0.316629
v -0.228837 0.011007 -0.316629
v -0.227396 0.011007 -0.314645
v -0.373273 0.011007 -0.117830
v -0.373273 0.011007 -0.117830
v -0.370941 0.011007 -0.117072
v -0.373273 0.011007 0.127899
v -0.373273 0.011007 0.127899
v -0.370941 0.011007 0.127142
v -0.228837 0.011007 0.326698
v -0.228837 0.011007 0.326698
v -0.227396 0.011007 0.324715
v 0.004865 0.011007 0.402633
v 0.004865 0.011007 0.402633
v 0.004865 0.011007 0.400181
v 0.238567 0.011007 0.326698
v 0.238567 0.011007 0.326698
v 0.237126 0.011007 0.324715
v 0.383003 0.011007 0.127899
v 0.383003 0.011007 0.127899
v 0.380671 0.011007 0.127142
v 0.383003 0.011007 -0.117830
v 0.383003 0.011007 -0.117830
v 0.380671 0.011007 -0.117072
v 0.238567 0.011007 -0.316629
v 0.238567 0.011007 -0.316629
v 0.237126 0.011007 -0.314645
v 0.004865 0.011007 -0.392563
v 0.002647 0.012670 -0.391843
v 0.007083 0.012670 -0.391843
v 0.004865 0.011007 -0.392563
v -0.230208 0.012670 -0.314742
v -0.226620 0.012670 -0.317349
v -0.228837 0.011007 -0.316629
v -0.228837 0.011007 -0.316629
v -0.373273 0.012670 -0.115498
v -0.371903 0.012670 -0.119716
v -0.373273 0.011007 -0.117830
v -0.373273 0.011007 -0.117830
v -0.371903 0.012670 0.129786
v -0.373273 0.012670 0.125568
v -0.373273 0.011007 0.127899
v -0.373273 0.011007 0.127899
v -0.226620 0.012670 0.327419
v -0.230208 0.012670 0.324812
v -0.228837 0.011007 0.326698
v -0.228837 0.011007 0.326698
v 0.007083 0.012670 0.401912
v 0.002648 0.012670 0.401912
v 0.004865 0.011007 0.402633
v 0.004865 0.011007 0.402633
v 0.239938 0.012670 0.324812
v 0.236350 0.012670 0.327419
v 0.238567 0.011007 0.326698
v 0.238567 0.011007 0.326698
v 0.383003 0.012670 0.125568
v 0.381633 0.012670 0.129786
v 0.383003 0.011007 0.127899
v 0.383003 0.011007 0.127899
v 0.381633 0.012670 -0.119716
v 0.383003 0.012670 -0.115498
v 0.383003 0.011007 -0.117830
v 0.383003 0.011007 -0.117830
v 0.236350 0.012670 -0.317349
v 0.239938 0.012670 -0.314742
v 0.238567 0.011007 -0.316629
v 0.238567 0.011007 -0.316629
v 0.007083 0.020826 -0.391843
v 0.002647 0.020826 -0.391843
v 0.004865 0.022489 -0.390111
v -0.227396 0.022489 -0.314645
v -0.226620 0.020826 -0.317349
v -0.230208 0.020826 -0.314742
v -0.370941 0.022489 -0.117072
v -0.371903 0.020826 -0.119716
v -0.373273 0.020826 -0.115498
v -0.370941 0.022489 0.127142
v -0.373273 0.020826 0.125568
v -0.371903 0.020826 0.129786
v -0.227396 0.022489 0.324715
v -0.230208 0.020826 0.324812
v -0.226620 0.020826 0.327419
v 0.004865 0.022489 0.400181
v 0.002648 0.020826 0.401912
v 0.007083 0.020826 0.401912
v 0.237126 0.022489 0.324715
v 0.236350 0.020826 0.327419
v 0.239938 0.020826 0.324812
v 0.380671 0.022489 0.127142
v 0.381633 0.020826 0.129786
v 0.383003 0.020826 0.125568
v 0.380671 0.022489 -0.117072
v 0.383003 0.020826 -0.115498
v 0.381633 0.020826 -0.119716
v 0.237126 0.022489 -0.314645
v 0.239938 0.020826 -0.314742
v 0.236350 0.020826 -0.317349
v 0.004865 0.020826 -0.391843
v -0.228414 0.020826 -0.316046
v -0.372588 0.020826 -0.117607
v -0.372588 0.020826 0.127677
v -0.228414 0.020826 0.326116
v 0.004865 0.020826 0.401912
v 0.238144 0.020826 0.326115
v 0.382318 0.020826 0.127677
v 0.382318 0.020826 -0.117607
v 0.238144 0.020826 -0.316046
v -0.111986 0.020826 -0.354596
v -0.301055 0.020826 -0.217229
v -0.373273 0.020826 0.005035
v -0.301055 0.020826 0.227299
v -0.111986 0.020826 0.364666
v 0.121716 0.020826 0.364666
v 0.310785 0.020826 0.227299
v 0.383003 0.020826 0.005035
v 0.310785 0.020826 -0.217229
v 0.121716 0.020826 -0.354596
v 0.003756 0.020826 -0.391843
v -0.229311 0.020826 -0.315394
v -0.372930 0.020826 -0.116552
v -0.372245 0.020826 0.128731
v -0.227517 0.020826 0.326767
v 0.005974 0.020826 0.401912
v 0.239041 0.020826 0.325464
v 0.382660 0.020826 0.126622
v 0.381975 0.020826 -0.118662
v 0.237247 0.020826 -0.316698
v -0.169303 0.020826 -0.335973
v -0.336479 0.020826 -0.168473
v -0.373273 0.020826 0.065301
v -0.265631 0.020826 0.276056
v -0.054669 0.020826 0.383289
v 0.179033 0.020826 0.346042
v 0.346209 0.020826 0.178542
v 0.383003 0.020826 -0.055232
v 0.275361 0.020826 -0.265986
v 0.064399 0.020826 -0.373219
v 0.005974 0.020826 -0.391843
v -0.227517 0.020826 -0.316697
v -0.372245 0.020826 -0.118662
v -0.372930 0.020826 0.126622
v -0.229311 0.020826 0.325464
v 0.003756 0.020826 0.401912
v 0.237247 0.020826 0.326767
v 0.381975 0.020826 0.128731
v 0.382660 0.020826 -0.116553
v 0.239041 0.020826 -0.315394
v -0.054669 0.020826 -0.373219
v -0.265631 0.020826 -0.265986
v -0.373273 0.020826 -0.055232
v -0.336479 0.020826 0.178542
v -0.169303 0.020826 0.346042
v 0.064399 0.020826 0.383289
v 0.275362 0.020826 0.276055
v 0.383003 0.020826 0.065301
v 0.346209 0.020826 -0.168473
v 0.179033 0.020826 -0.335973
vt 0.036133 0.639648
vt 0.065430 0.875977
vt 0.068359 0.891602
vt 0.067383 0.908203
vt 0.061523 0.908203
vt 0.060547 0.908203
vt 0.062500 0.897461
vt 0.102539 0.639648
vt 0.142578 0.653320
vt 0.166992 0.686523
vt 0.257812 0.639648
vt 0.291992 0.666016
vt 0.305664 0.706055
vt 0.054688 0.833984
vt 0.053711 0.850586
vt 0.050781 0.866211
vt 0.050781 0.908203
vt 0.050781 0.867188
vt 0.052734 0.887695
vt 0.052734 0.916992
vt 0.053711 0.924805
vt 0.054688 0.932617
vt 0.059570 0.833984
vt 0.059570 0.850586
vt 0.055664 0.866211
vt 0.055664 0.908203
vt 0.055664 0.867188
vt 0.057617 0.886719
vt 0.057617 0.916992
vt 0.059570 0.924805
vt 0.059570 0.932617
vt 0.067383 0.834961
vt 0.067383 0.854492
vt 0.065430 0.875000
vt 0.065430 0.941406
vt 0.064453 0.941406
vt 0.064453 0.932617
vt 0.061523 0.867188
vt 0.061523 0.866211
vt 0.067383 0.833008
vt 0.066406 0.833984
vt 0.054688 0.942383
vt 0.053711 0.942383
vt 0.049805 0.908203
vt 0.049805 0.866211
vt 0.053711 0.833984
vt 0.062500 0.908203
vt 0.062500 0.866211
vt 0.063477 0.866211
vt 0.066406 0.875000
vt 0.067383 0.875000
vt 0.068359 0.833984
vt 0.057617 0.908203
vt 0.057617 0.866211
vt 0.180664 0.665039
vt 0.180664 0.666016
vt 0.052734 0.908203
vt 0.052734 0.866211
vt 0.052734 0.867188
vt 0.292969 0.666016
vt 0.102539 0.777344
vt 0.102539 0.776367
vt 0.142578 0.764648
vt 0.166992 0.728516
vt 0.166992 0.730469
vt 0.142578 0.652344
vt 0.060547 0.652344
vt 0.036133 0.686523
vt 0.061523 0.653320
vt 0.036133 0.728516
vt 0.060547 0.764648
vt 0.036133 0.730469
vt 0.061523 0.764648
vt 0.064453 0.833008
vt 0.059570 0.941406
vt 0.059570 0.833008
vt 0.054688 0.941406
vt 0.063477 0.941406
vt 0.298828 0.725586
vt 0.291992 0.746094
vt 0.257812 0.770508
vt 0.266602 0.764648
vt 0.237305 0.770508
vt 0.214844 0.770508
vt 0.213867 0.770508
vt 0.206055 0.764648
vt 0.167969 0.706055
vt 0.180664 0.746094
vt 0.174805 0.725586
vt 0.176758 0.674805
vt 0.189453 0.658203
vt 0.214844 0.639648
vt 0.237305 0.639648
vt 0.291992 0.665039
vt 0.283203 0.658203
vt 0.298828 0.684570
vt 0.054688 0.833008
vt 0.055664 0.833008
vt 0.055664 0.833984
vt 0.055664 0.941406
vt 0.062500 0.867188
vt 0.066406 0.875977
vt 0.067383 0.883789
vt 0.062500 0.886719
vt 0.068359 0.900391
vt 0.068359 0.908203
vt 0.062500 0.877930
vt 0.054688 0.841797
vt 0.052734 0.877930
vt 0.052734 0.858398
vt 0.052734 0.897461
vt 0.060547 0.833984
vt 0.059570 0.841797
vt 0.057617 0.867188
vt 0.057617 0.877930
vt 0.057617 0.858398
vt 0.057617 0.897461
vt 0.064453 0.924805
vt 0.068359 0.834961
vt 0.068359 0.843750
vt 0.060547 0.941406
vt 0.063477 0.916992
vt 0.067383 0.864258
vt 0.292969 0.665039
vt 0.065430 0.833984
vt 0.274414 0.758789
vt 0.301758 0.714844
vt 0.283203 0.751953
vt 0.296875 0.735352
vt 0.292969 0.745117
vt 0.166992 0.705078
vt 0.170898 0.694336
vt 0.248047 0.770508
vt 0.226562 0.770508
vt 0.189453 0.751953
vt 0.198242 0.758789
vt 0.180664 0.745117
vt 0.176758 0.735352
vt 0.174805 0.684570
vt 0.170898 0.714844
vt 0.166992 0.706055
vt 0.206055 0.646484
vt 0.274414 0.652344
vt 0.198242 0.652344
vt 0.226562 0.639648
vt 0.213867 0.639648
vt 0.266602 0.646484
vt 0.248047 0.639648
vt 0.296875 0.674805
vt 0.301758 0.694336
vt 0.305664 0.705078
vt 0.055664 0.942383
vn 0.000000 0.000000 1.000000
vn -0.809017 -0.000002 -0.587785
vn -0.309017 0.000000 -0.951056
vn 0.000000 -1.000000 0.000000
vn 0.000000 1.000000 0.000000
vn 0.809017 -0.000004 -0.587786
vn 1.000000 -0.000004 0.000000
vn 0.309017 -0.000002 0.951056
vn -0.309017 -0.000000 0.951056
vn -1.000000 0.000000 0.000000
vn 0.309017 0.000000 -0.951056
vn 0.000000 0.397480 -0.917611
vn -0.872690 0.397501 0.283558
vn 0.000000 0.721081 -0.692851
vn -0.407240 0.721095 -0.560516
vn -0.658947 0.721069 -0.214122
vn -0.658937 0.721082 0.214108
vn 0.000000 0.721081 0.692851
vn 0.407238 0.721069 0.560551
vn 0.658965 0.721045 0.214147
vn 0.658910 0.721117 -0.214073
vn 0.407249 0.721083 -0.560525
vn -0.309017 -0.000018 -0.951057
vn -0.809017 0.000036 -0.587785
vn -1.000000 -0.000002 0.000000
vn -0.809017 -0.000001 0.587785
vn -0.309017 0.000004 0.951056
vn 0.309017 -0.000023 0.951057
vn 0.809017 0.000000 0.587785
vn 1.000000 -0.000036 0.000000
vn 0.809017 0.000036 -0.587785
vn 0.309016 0.000000 -0.951057
vn -0.179461 0.814084 -0.552323
vn -0.469840 0.814079 -0.341358
vn -0.580770 0.814068 0.000000
vn -0.469840 0.814079 0.341358
vn -0.179462 0.814081 0.552328
vn 0.179461 0.814085 0.552322
vn 0.469831 0.814087 0.341353
vn 0.580745 0.814086 0.000000
vn 0.469839 0.814079 -0.341359
vn 0.179461 0.814082 -0.552326
vn 0.587785 0.000000 -0.809017
vn 0.000000 0.000000 -1.000000
vn 0.951064 0.000000 -0.308994
vn 0.951036 0.000000 0.309079
vn 0.587760 0.000000 0.809035
vn -0.587773 0.000000 0.809026
vn -0.951055 -0.000003 0.309023
vn -0.951055 0.000000 -0.309021
vn 0.000000 0.992278 0.124035
vn -0.809017 0.000000 -0.587785
vn -0.309017 -0.000002 -0.951057
vn -0.809017 -0.000008 -0.587785
vn -0.809017 0.000000 -0.587786
vn -0.309017 -0.000008 -0.951056
vn -0.309016 0.000003 -0.951057
vn 0.809017 0.000000 0.587786
vn 0.809017 0.000000 -0.587786
vn 1.000000 0.000000 0.000000
vn 0.809017 -0.000004 -0.587785
vn 0.809017 -0.000008 -0.587786
vn 0.809017 0.000000 -0.587785
vn 0.809017 -0.000006 0.587785
vn -0.809017 0.000000 0.587785
vn 0.309016 0.000000 0.951057
vn 0.809017 0.000011 0.587785
vn -0.309016 0.000000 0.951057
vn 0.309017 -0.000007 0.951056
vn -0.809017 -0.000004 0.587785
vn -0.309017 -0.000004 0.951056
vn -0.309016 -0.000004 0.951057
vn 0.309017 -0.000000 -0.951057
vn -0.809017 0.000004 0.587785
vn -1.000000 -0.000008 0.000000
vn 0.309017 0.000008 -0.951057
vn 0.309016 -0.000007 -0.951057
vn -0.539358 0.397514 -0.742345
vn -0.872690 0.397501 -0.283558
vn -0.539348 0.397506 0.742356
vn 0.000000 0.397480 0.917611
vn 0.539360 0.397494 0.742354
vn 0.872689 0.397502 0.283559
vn 0.872696 0.397488 -0.283559
vn 0.539353 0.397496 -0.742358
vn 0.000000 0.721080 -0.692852
vn -0.407252 0.721077 -0.560529
vn -0.407236 0.721082 -0.560535
vn -0.658943 0.721077 -0.214108
vn -0.658944 0.721080 -0.214093
vn -0.407241 0.721080 -0.560534
vn -0.658936 0.721079 0.214121
vn -0.658944 0.721077 0.214105
vn -0.658945 0.721077 -0.214101
vn -0.407243 0.721080 0.560533
vn -0.658952 0.721075 0.214089
vn 0.000000 0.721080 0.692852
vn -0.407245 0.721075 0.560538
vn 0.407235 0.721091 0.560525
vn 0.000000 0.992278 -0.124035
vn 0.658973 0.721054 0.214094
vn 0.407245 0.721086 0.560524
vn 0.658941 0.721085 0.214085
vn 0.658942 0.721066 -0.214148
vn 0.658948 0.721072 -0.214110
vn 0.658937 0.721082 0.214109
vn 0.407275 0.721085 -0.560503
vn 0.407238 0.721085 -0.560529
vn 0.658941 0.721085 -0.214086
vn 0.407270 0.721074 -0.560520
vn -0.309017 0.000005 -0.951057
vn -0.809017 -0.000019 -0.587785
vn -0.809017 -0.000018 0.587785
vn -0.309016 -0.000018 0.951057
vn 0.309017 0.000005 0.951057
vn 1.000000 0.000037 0.000000
vn 0.809017 0.000018 -0.587786
vn 0.309017 -0.000019 -0.951057
vn -0.469841 0.814078 -0.341359
vn -0.179462 0.814082 -0.552326
vn -0.469840 0.814079 -0.341359
vn -0.179462 0.814079 -0.552331
vn -0.179458 0.814089 -0.552318
vn -0.179462 0.814083 -0.552324
vn 0.179461 0.814083 0.552325
vn -0.469827 0.814091 -0.341349
vn -0.469831 0.814087 -0.341352
vn -0.580754 0.814079 0.000000
vn -0.580744 0.814087 0.000000
vn -0.469835 0.814084 0.341355
vn -0.580739 0.814089 0.000000
vn -0.179463 0.814078 0.552331
vn -0.469827 0.814090 0.341349
vn -0.469839 0.814081 0.341357
vn -0.179461 0.814082 0.552326
vn -0.179460 0.814085 0.552322
vn 0.469836 0.814082 0.341356
vn 0.179460 0.814084 0.552324
vn 0.179458 0.814090 0.552315
vn 0.469835 0.814084 -0.341355
vn 0.580744 0.814087 0.000000
vn 0.469827 0.814090 0.341349
vn 0.469833 0.814085 0.341354
vn 0.469832 0.814086 -0.341353
vn 0.580744 0.814086 0.000000
vn 0.580740 0.814089 0.000000
vn 0.587819 0.000000 -0.808992
vn 0.469831 0.814086 -0.341353
vn 0.469815 0.814101 -0.341341
vn 0.179461 0.814083 -0.552325
vn 0.179457 0.814090 -0.552315
vn 0.179464 0.814076 -0.552335
vn 0.179462 0.814082 -0.552326
vn 0.587773 0.000000 -0.809026
vn 0.587766 -0.000006 -0.809031
vn 0.587786 0.000000 -0.809017
vn 0.951038 0.000000 -0.309075
vn -0.951055 0.000000 0.309023
vn 0.951055 -0.000006 -0.309023
vn 0.951065 0.000006 -0.308991
vn 0.951065 0.000000 0.308991
vn 0.951055 0.000006 -0.309021
vn 0.951065 0.000006 0.308991
vn 0.951052 0.000000 0.309030
vn 0.587773 0.000000 0.809026
vn 0.951057 0.000006 0.309017
vn 0.587785 0.000010 0.809017
vn 0.587779 -0.000010 0.809022
vn 0.587799 0.000000 0.809007
vn -0.587766 0.000003 0.809031
vn -0.587785 0.000010 0.809017
vn -0.951047 0.000000 0.309047
vn -0.587791 -0.000006 0.809013
vn -0.951049 0.000000 -0.309039
vn -0.951065 0.000013 0.308991
vn -0.951053 0.000000 -0.309026
vn -0.951057 0.000006 0.309015
vn -0.951057 -0.000006 -0.309015
vn -0.951063 0.000006 -0.308998
vn -0.587785 0.000000 -0.809017
vn -0.587819 0.000000 -0.808992
vn -0.587769 0.000003 -0.809029
vn -0.587794 -0.000006 -0.809011
s off
f 3/1/1 34/1/1 70/1/1
f 40/2/2 112/3/2 35/4/2
f 8/1/1 41/1/1 38/1/1
f 72/5/3 32/6/3 151/7/3
f 29/1/1 69/1/1 66/1/1
f 26/1/1 65/1/1 62/1/1
f 23/1/1 61/1/1 58/1/1
f 20/1/1 57/1/1 54/1/1
f 17/1/1 53/1/1 50/1/1
f 14/1/1 49/1/1 46/1/1
f 11/1/1 45/1/1 42/1/1
f 18/8/4 15/9/4 12/10/4
f 95/11/5 98/12/5 73/13/5
f 68/14/6 119/15/6 63/16/6
f 59/17/7 64/18/7 118/19/7
f 137/20/5 117/21/5 157/22/5
f 56/23/8 116/24/8 51/25/8
f 47/26/9 52/27/9 115/28/9
f 134/29/1 114/30/1 154/31/1
f 44/32/10 113/33/10 39/34/10
f 100/35/11 67/36/11 160/37/11
f 1/1/1 2/1/1 3/1/1
f 4/1/1 5/1/1 6/1/1
f 7/1/1 8/1/1 9/1/1
f 10/1/1 11/1/1 12/1/1
f 13/1/1 14/1/1 15/1/1
f 16/1/1 17/1/1 18/1/1
f 19/1/1 20/1/1 21/1/1
f 22/1/1 23/1/1 24/1/1
f 25/1/1 26/1/1 27/1/1
f 28/1/1 29/1/1 30/1/1
f 32/6/12 33/5/12 34/6/12
f 36/38/1 37/39/1 38/39/1
f 40/2/1 41/34/1 42/34/1
f 43/40/13 44/32/13 45/41/13
f 48/26/1 49/26/1 50/26/1
f 52/27/1 53/25/1 54/25/1
f 56/42/1 57/43/1 58/43/1
f 60/17/1 61/44/1 62/44/1
f 64/18/1 65/45/1 66/45/1
f 68/14/1 69/46/1 70/46/1
f 121/5/14 72/5/14 73/47/14
f 122/48/15 76/48/15 74/49/15
f 123/50/16 79/50/16 77/51/16
f 124/52/17 82/52/17 80/52/17
f 145/53/5 105/53/5 125/53/5
f 126/54/18 88/54/18 86/54/18
f 127/55/19 91/55/19 89/56/19
f 128/57/20 94/57/20 92/57/20
f 129/58/21 97/58/21 95/59/21
f 130/60/22 100/60/22 98/12/22
f 2/61/4 1/62/4 6/63/4
f 4/63/4 6/63/4 9/64/4
f 7/65/4 9/64/4 12/10/4
f 10/10/4 12/10/4 15/9/4
f 13/66/4 15/9/4 18/8/4
f 20/67/4 16/8/4 18/8/4
f 23/68/4 19/67/4 21/69/4
f 22/68/4 24/68/4 27/70/4
f 29/71/4 25/72/4 27/70/4
f 3/61/4 28/71/4 30/73/4
f 32/6/23 31/6/23 37/39/23
f 35/39/24 38/39/24 41/74/24
f 44/32/25 39/34/25 42/34/25
f 48/26/26 43/75/26 46/75/26
f 52/27/27 47/26/27 50/26/27
f 51/25/28 54/25/28 57/76/28
f 55/77/29 58/43/29 61/44/29
f 59/17/30 62/44/30 65/45/30
f 68/14/31 63/16/31 66/45/31
f 67/36/32 70/78/32 34/6/32
f 29/1/1 28/1/1 70/1/1
f 31/1/1 34/1/1 3/1/1
f 26/1/1 25/1/1 66/1/1
f 23/1/1 22/1/1 62/1/1
f 20/1/1 19/1/1 58/1/1
f 17/1/1 16/1/1 54/1/1
f 14/1/1 13/1/1 50/1/1
f 11/1/1 10/1/1 46/1/1
f 8/1/1 7/1/1 42/1/1
f 5/1/1 4/1/1 38/1/1
f 73/13/33 111/79/33 74/80/33
f 78/81/34 77/81/34 132/82/34
f 113/83/35 80/84/35 77/81/35
f 80/84/36 82/85/36 154/86/36
f 86/87/37 83/88/37 115/89/37
f 90/56/38 89/56/38 136/90/38
f 89/56/39 91/55/39 157/91/39
f 92/92/40 118/93/40 95/11/40
f 99/94/41 98/12/41 139/95/41
f 98/12/42 120/96/42 73/13/42
f 67/97/43 100/98/43 130/99/43
f 141/47/44 71/47/44 33/5/44
f 63/16/45 97/58/45 129/58/45
f 59/17/46 94/57/46 128/57/46
f 55/77/47 91/100/47 127/100/47
f 51/25/1 88/54/1 126/54/1
f 47/26/48 85/53/48 125/53/48
f 43/40/49 104/52/49 44/32/49
f 40/2/50 39/34/50 103/50/50
f 122/48/51 102/48/51 142/101/51
f 5/1/1 37/1/1 31/1/1
f 28/1/1 3/1/1 70/1/1
f 4/1/1 8/1/1 38/1/1
f 40/2/52 78/102/52 132/103/52
f 36/38/53 111/104/53 32/6/53
f 40/2/54 132/103/54 112/3/54
f 112/3/54 152/105/54 35/4/54
f 152/105/55 76/106/55 35/4/55
f 36/38/3 75/101/3 131/107/3
f 25/1/1 29/1/1 66/1/1
f 131/107/56 111/104/56 36/38/56
f 22/1/1 26/1/1 62/1/1
f 32/6/57 111/104/57 151/7/57
f 19/1/1 23/1/1 58/1/1
f 16/1/1 20/1/1 54/1/1
f 13/1/1 17/1/1 50/1/1
f 10/1/1 14/1/1 46/1/1
f 7/1/1 11/1/1 42/1/1
f 1/62/4 27/70/4 6/63/4
f 1/62/4 30/73/4 27/70/4
f 27/70/4 24/68/4 21/69/4
f 27/70/4 9/64/4 6/63/4
f 9/64/4 27/70/4 12/10/4
f 77/81/5 80/84/5 83/88/5
f 73/13/5 74/80/5 77/81/5
f 27/70/4 21/69/4 18/8/4
f 27/70/4 18/8/4 12/10/4
f 83/88/5 86/87/5 89/56/5
f 89/56/5 92/92/5 95/11/5
f 60/17/58 93/57/58 137/20/58
f 83/88/5 95/11/5 77/81/5
f 83/88/5 89/56/5 95/11/5
f 68/14/59 99/99/59 139/108/59
f 95/11/5 73/13/5 77/81/5
f 64/18/60 96/59/60 138/109/60
f 68/14/61 139/108/61 119/15/61
f 119/15/62 159/110/62 63/16/62
f 159/110/63 97/58/63 63/16/63
f 60/17/64 157/22/64 55/77/64
f 64/18/60 138/109/60 118/19/60
f 158/111/60 59/17/60 118/19/60
f 158/111/60 94/57/60 59/17/60
f 48/26/65 84/53/65 134/29/65
f 56/23/66 90/112/66 136/113/66
f 60/17/67 137/20/67 157/22/67
f 157/22/29 91/100/29 55/77/29
f 52/27/68 87/114/68 135/115/68
f 56/23/69 136/113/69 116/24/69
f 116/24/8 156/116/8 51/25/8
f 156/116/66 88/54/66 51/25/66
f 48/26/70 154/31/70 43/75/70
f 52/27/71 135/115/71 115/28/71
f 155/117/72 47/26/72 115/28/72
f 155/117/9 85/53/9 47/26/9
f 33/5/73 120/118/73 67/36/73
f 44/32/10 81/119/10 133/120/10
f 48/26/74 134/29/74 154/31/74
f 154/31/65 82/121/65 43/75/65
f 33/5/11 71/47/11 140/122/11
f 44/32/10 133/120/10 113/33/10
f 113/33/75 153/123/75 39/34/75
f 153/123/10 79/50/10 39/34/10
f 31/6/1 32/6/1 34/6/1
f 33/5/76 140/122/76 120/118/76
f 67/36/77 120/118/77 160/37/77
f 35/39/78 36/38/78 38/39/78
f 39/34/79 40/2/79 42/34/79
f 46/41/1 43/40/1 45/41/1
f 47/26/80 48/26/80 50/26/80
f 51/25/81 52/27/81 54/25/81
f 55/77/82 56/42/82 58/43/82
f 59/17/83 60/17/83 62/44/83
f 63/16/84 64/18/84 66/45/84
f 67/97/85 68/14/85 70/46/85
f 73/47/86 71/47/86 141/47/86
f 121/5/86 73/47/86 101/5/86
f 74/49/87 75/101/87 142/101/87
f 122/48/88 74/49/88 102/48/88
f 73/47/86 141/47/86 101/5/86
f 77/51/89 78/102/89 143/50/89
f 123/50/90 77/51/90 103/50/90
f 74/49/91 142/101/91 102/48/91
f 80/52/92 81/119/92 144/52/92
f 124/52/93 80/52/93 104/52/93
f 77/51/94 143/50/94 103/50/94
f 84/53/95 125/53/95 83/53/95
f 86/54/18 87/114/18 146/114/18
f 80/52/96 144/52/96 104/52/96
f 126/54/97 86/54/97 106/54/97
f 84/53/4 145/53/4 125/53/4
f 125/53/98 85/53/98 83/53/98
f 89/56/99 90/56/99 147/56/99
f 147/56/100 107/55/100 127/55/100
f 86/54/97 146/114/97 106/54/97
f 92/57/101 93/57/101 148/57/101
f 89/56/102 147/56/102 127/55/102
f 128/57/103 92/57/103 108/57/103
f 95/59/104 96/59/104 149/59/104
f 129/58/105 95/59/105 109/59/105
f 92/57/106 148/57/106 108/57/106
f 98/12/107 99/94/107 150/94/107
f 130/60/108 98/12/108 110/124/108
f 95/59/109 149/59/109 109/59/109
f 5/63/4 2/61/4 6/63/4
f 8/65/4 4/63/4 9/64/4
f 98/12/110 150/94/110 110/124/110
f 11/10/4 7/65/4 12/10/4
f 14/66/4 10/10/4 15/9/4
f 17/8/4 13/66/4 18/8/4
f 21/69/4 20/67/4 18/8/4
f 24/68/4 23/68/4 21/69/4
f 26/72/4 22/68/4 27/70/4
f 30/73/4 29/71/4 27/70/4
f 1/62/4 3/61/4 30/73/4
f 36/38/111 32/6/111 37/39/111
f 40/125/112 35/39/112 41/74/112
f 45/41/10 44/32/10 42/34/10
f 49/26/113 48/26/113 46/75/113
f 53/25/114 52/27/114 50/26/114
f 56/23/115 51/25/115 57/76/115
f 60/17/29 55/77/29 61/44/29
f 64/18/116 59/17/116 65/45/116
f 69/46/117 68/14/117 66/45/117
f 33/5/118 67/36/118 34/6/118
f 69/1/1 29/1/1 70/1/1
f 2/1/1 31/1/1 3/1/1
f 65/1/1 26/1/1 66/1/1
f 61/1/1 23/1/1 62/1/1
f 57/1/1 20/1/1 58/1/1
f 53/1/1 17/1/1 54/1/1
f 49/1/1 14/1/1 50/1/1
f 45/1/1 11/1/1 46/1/1
f 41/1/1 8/1/1 42/1/1
f 37/1/1 5/1/1 38/1/1
f 74/80/119 112/126/119 77/81/119
f 73/13/120 72/13/120 151/127/120
f 74/80/121 76/80/121 152/128/121
f 73/13/122 151/127/122 111/79/122
f 111/79/123 131/129/123 74/80/123
f 131/129/124 75/130/124 74/80/124
f 86/87/125 88/131/125 156/132/125
f 74/80/126 152/128/126 112/126/126
f 77/81/127 112/126/127 132/82/127
f 77/81/128 79/81/128 153/133/128
f 133/134/129 80/84/129 113/83/129
f 153/133/129 113/83/129 77/81/129
f 80/84/130 134/135/130 83/88/130
f 133/134/131 81/84/131 80/84/131
f 154/86/1 114/136/1 134/135/1
f 83/88/132 85/137/132 155/138/132
f 80/84/133 154/86/133 134/135/133
f 134/135/134 84/88/134 83/88/134
f 86/87/38 116/139/38 89/56/38
f 83/88/135 155/138/135 115/89/135
f 135/140/136 86/87/136 115/89/136
f 135/140/135 87/141/135 86/87/135
f 89/56/137 137/142/137 92/92/137
f 86/87/138 156/132/138 116/139/138
f 89/56/139 116/139/139 136/90/139
f 95/11/140 119/143/140 98/12/140
f 157/91/4 117/144/4 137/142/4
f 92/92/141 94/92/141 158/145/141
f 89/56/142 157/91/142 137/142/142
f 137/142/143 93/146/143 92/92/143
f 95/11/144 97/11/144 159/147/144
f 92/92/141 158/145/141 118/93/141
f 118/93/145 138/148/145 95/11/145
f 138/148/146 96/11/146 95/11/146
f 150/99/147 99/99/147 68/14/147
f 95/11/148 159/147/148 119/143/148
f 98/12/149 119/143/149 139/95/149
f 98/12/150 100/60/150 160/149/150
f 141/47/44 33/5/44 101/5/44
f 98/12/151 160/149/151 120/96/151
f 120/96/152 140/150/152 73/13/152
f 140/150/153 71/151/153 73/13/153
f 110/99/154 67/97/154 130/99/154
f 110/99/155 150/99/155 68/14/155
f 72/5/44 121/5/44 32/6/44
f 110/99/156 68/14/156 67/97/156
f 149/59/157 96/59/157 64/18/157
f 82/52/158 124/52/158 43/40/158
f 101/5/44 33/5/44 32/6/44
f 121/5/44 101/5/44 32/6/44
f 109/59/159 63/16/159 129/58/159
f 109/59/160 149/59/160 64/18/160
f 148/57/161 93/57/161 60/17/161
f 109/59/162 64/18/162 63/16/162
f 108/57/163 59/17/163 128/57/163
f 108/57/164 148/57/164 60/17/164
f 147/152/165 90/152/165 56/42/165
f 108/57/166 60/17/166 59/17/166
f 107/100/167 55/77/167 127/100/167
f 107/100/168 147/152/168 56/42/168
f 146/114/1 87/114/1 52/27/1
f 107/100/169 56/42/169 55/77/169
f 106/54/1 51/25/1 126/54/1
f 106/54/1 146/114/1 52/27/1
f 145/53/48 84/53/48 48/26/48
f 106/54/1 52/27/1 51/25/1
f 105/53/170 47/26/170 125/53/170
f 105/53/171 145/53/171 48/26/171
f 144/52/172 81/119/172 44/32/172
f 105/53/173 48/26/173 47/26/173
f 79/50/174 123/50/174 39/34/174
f 104/52/175 144/52/175 44/32/175
f 143/50/176 78/102/176 40/2/176
f 43/40/177 124/52/177 104/52/177
f 103/50/178 143/50/178 40/2/178
f 39/34/179 123/50/179 103/50/179
f 142/101/180 75/101/180 36/38/180
f 76/48/181 122/48/181 35/39/181
f 2/1/1 5/1/1 31/1/1
f 36/38/182 122/48/182 142/101/182
f 122/48/183 36/38/183 35/39/183
