# Blender v2.73 (sub 0) OBJ File: 'rooftileNormal45.blend'
# www.blender.org
v 0.505650 0.000000 0.495350
v -0.484350 0.000000 0.495350
v 0.504000 0.000000 -0.493000
v -0.484350 0.990000 0.495350
v 0.504000 0.990000 -0.493000
v -0.486000 0.990000 -0.493000
v -0.486000 0.000000 -0.493000
vt 0.252591 0.000000
vt 0.562468 0.000000
vt 0.562468 0.366249
vt 0.252591 0.634361
vt 0.000000 0.423259
vt 0.871828 0.000000
vt 0.252591 0.625441
vt 0.471524 0.366249
vt 0.471524 0.884634
vt 0.690640 0.366859
vt 1.000000 0.366249
vt 1.000000 0.732497
vt 0.000000 1.000000
vt 0.219116 0.634361
vt 0.219116 1.000000
vt 0.690640 0.366249
vt 0.690640 0.884202
vt 0.471524 0.625225
vt 0.252591 0.366249
vt 0.871828 0.366248
vt 0.690640 0.733108
vn 0.000000 0.000000 -1.000000
vn 0.707100 0.707100 -0.001200
vn -1.000000 0.000000 0.001700
vn 0.000000 0.706500 0.707700
vn 0.000000 -1.000000 0.000000
vn 1.000000 0.000000 -0.001700
vn 0.000000 0.000000 1.000000
s off
f 6/1/1 5/2/1 3/3/1
f 1/1/2 6/4/2 4/5/2
f 2/3/3 4/2/3 6/6/3
f 5/7/4 6/8/4 1/9/4
f 3/10/5 1/11/5 2/12/5
f 5/13/6 1/14/6 3/15/6
f 1/16/7 4/17/7 2/18/7
f 7/19/1 6/1/1 3/3/1
f 7/20/3 2/3/3 6/6/3
f 7/21/5 3/10/5 2/12/5
