# Blender v2.73 (sub 0) OBJ File: 'rooftileNormal45.blend'
# www.blender.org
v -0.494574 0.000004 0.499407
v 0.496318 0.000004 0.499407
v -0.494574 0.000004 -0.496157
v 0.494574 0.000004 -0.496157
v -0.494574 0.999394 -0.496157
v 0.496318 0.999394 -0.496157
vt 0.414214 1.000000
vt 0.000000 1.000000
vt 0.000000 0.585786
vt 1.000000 0.414214
vt 1.000000 1.000000
vt 0.707107 0.707107
vt 0.828427 0.414214
vt 0.414214 0.414214
vt 0.414214 0.000000
vt 0.000000 0.000000
vt 0.414214 0.707107
vt 0.707107 0.414214
vt 0.707107 1.000000
vt 0.414213 0.585786
vt 0.828427 0.000000
vn 0.000000 -1.000000 0.000000
vn -1.000000 0.000000 0.000000
vn 0.000000 0.000000 -1.000000
vn 0.000000 0.705700 0.708500
vn 1.000000 -0.001700 -0.001800
s off
f 1/1/1 3/2/1 4/3/1
f 1/4/2 5/5/2 3/6/2
f 4/7/3 3/8/3 5/9/3
f 2/3/4 6/10/4 5/9/4
f 4/11/5 6/12/5 2/13/5
f 2/14/1 1/1/1 4/3/1
f 6/15/3 4/7/3 5/9/3
f 1/14/4 2/3/4 5/9/4
