# Blender v2.70 (sub 0) OBJ File: 'Leitplanke.blend'
# www.blender.org
v 0.696811 0.233121 -0.098841
v -0.700035 0.233121 -0.098839
v 0.696811 0.233121 -0.010219
v -0.700035 0.233121 -0.010217
v 0.168363 0.000000 -0.007043
v -0.169829 0.000000 -0.007043
v 0.168363 0.000000 0.081580
v -0.169829 0.000000 0.081580
v 0.168363 1.000000 -0.007043
v -0.169829 1.000000 -0.007043
v 0.168363 1.000000 0.081580
v -0.169829 1.000000 0.081580
v 0.696811 0.560750 -0.098841
v -0.700035 0.560750 -0.098839
v 0.696811 0.560750 -0.010219
v -0.700035 0.560750 -0.010217
v 0.696811 0.680460 -0.098841
v -0.700035 0.680460 -0.098839
v 0.696811 0.680460 -0.010219
v -0.700035 0.680460 -0.010217
v 0.696811 1.008090 -0.098841
v -0.700035 1.008090 -0.098839
v 0.696811 1.008090 -0.010219
v -0.700035 1.008090 -0.010217
vt 0.899197 0.000289
vt 0.899197 0.743385
vt 0.866269 0.743385
vt 0.180201 0.613555
vt 0.000289 0.613555
vt 0.000289 0.580627
vt 0.371837 0.580627
vt 0.371837 0.613555
vt 0.191925 0.613555
vt 0.552326 0.367210
vt 0.552326 0.738758
vt 0.372414 0.738758
vt 0.371837 0.580050
vt 0.000289 0.580050
vt 0.000289 0.547122
vt 0.371837 0.547122
vt 0.000289 0.367210
vt 0.585831 0.367210
vt 0.585831 0.738758
vt 0.552903 0.738758
vt 0.932702 0.000289
vt 0.932702 0.743385
vt 0.899774 0.743385
vt 0.743962 0.000289
vt 0.865692 0.000289
vt 0.865692 0.743385
vt 0.249530 0.647060
vt 0.127800 0.647060
vt 0.127800 0.614132
vt 0.743385 0.244903
vt 0.743385 0.366633
vt 0.000289 0.366633
vt 0.619336 0.367210
vt 0.619336 0.488940
vt 0.586408 0.488940
vt 0.999711 0.000289
vt 0.999711 0.743385
vt 0.966784 0.743385
vt 0.966206 0.000289
vt 0.966206 0.743385
vt 0.933279 0.743385
vt 0.000289 0.122019
vt 0.000289 0.000289
vt 0.743385 0.000289
vt 0.371837 0.647060
vt 0.250107 0.647060
vt 0.250107 0.614132
vt 0.743385 0.122596
vt 0.743385 0.244326
vt 0.000289 0.244326
vt 0.586408 0.611248
vt 0.586408 0.489518
vt 0.619336 0.489518
vt 0.866269 0.000289
vt 0.180201 0.580627
vt 0.191925 0.580627
vt 0.372414 0.367210
vt 0.371837 0.367210
vt 0.552903 0.367210
vt 0.899774 0.000289
vt 0.743962 0.743385
vt 0.249530 0.614132
vt 0.000289 0.244903
vt 0.586408 0.367210
vt 0.966784 0.000289
vt 0.933279 0.000289
vt 0.743385 0.122019
vt 0.371837 0.614132
vt 0.000289 0.122596
vt 0.619336 0.611248
vn 0.000000 -1.000000 0.000000
vn 0.000000 1.000000 0.000000
vn 0.000001 0.000000 1.000000
vn -1.000000 0.000000 0.000002
vn -0.000001 0.000000 -1.000000
vn 1.000000 0.000000 -0.000001
vn -1.000000 0.000000 0.000000
vn 0.000000 1.000000 0.000001
vn 0.000000 -1.000000 -0.000001
vn 0.000000 1.000000 0.000002
s off
f 3/1/1 4/2/1 2/3/1
f 7/4/1 8/5/1 6/6/1
f 10/7/2 12/8/2 11/9/2
f 7/10/3 11/11/3 12/12/3
f 8/13/4 12/14/4 10/15/4
f 6/16/5 10/15/5 9/17/5
f 5/18/6 9/19/6 11/20/6
f 13/21/2 14/22/2 16/23/2
f 3/24/3 15/25/3 16/26/3
f 4/27/7 16/28/7 14/29/7
f 2/30/5 14/31/5 13/32/5
f 1/33/6 13/34/6 15/35/6
f 19/36/1 20/37/1 18/38/1
f 21/39/2 22/40/2 24/41/2
f 19/42/3 23/43/3 24/44/3
f 20/45/7 24/46/7 22/47/7
f 18/48/5 22/49/5 21/50/5
f 17/51/6 21/52/6 23/53/6
f 1/54/1 3/1/1 2/3/1
f 5/55/1 7/4/1 6/6/1
f 9/56/2 10/7/2 11/9/2
f 8/57/3 7/10/3 12/12/3
f 6/16/4 8/13/4 10/15/4
f 5/58/5 6/16/5 9/17/5
f 7/59/6 5/18/6 11/20/6
f 15/60/8 13/21/8 16/23/8
f 4/61/3 3/24/3 16/26/3
f 2/62/7 4/27/7 14/29/7
f 1/63/5 2/30/5 13/32/5
f 3/64/6 1/33/6 15/35/6
f 17/65/9 19/36/9 18/38/9
f 23/66/10 21/39/10 24/41/10
f 20/67/3 19/42/3 24/44/3
f 18/68/7 20/45/7 22/47/7
f 17/69/5 18/48/5 21/50/5
f 19/70/6 17/51/6 23/53/6
