# Blender v2.73 (sub 0) OBJ File: 'DrinksMachine.blend'
# www.blender.org
v 0.527768 1.356631 0.670454
v 0.527768 1.356631 0.634714
v 0.899790 1.356631 0.634714
v 0.899790 1.356631 0.670454
v 0.527768 2.616631 0.670454
v 0.527768 2.616631 0.634714
v 0.899790 2.616631 0.634714
v 0.899790 2.616631 0.670454
v -0.983084 0.000000 0.630000
v 0.983084 0.000000 0.630000
v -0.983084 0.000000 -0.630000
v 0.983084 0.000000 -0.630000
v -0.983084 3.135498 0.630000
v 0.983084 3.135498 0.630000
v -0.983084 3.135498 -0.630000
v 0.983084 3.135498 -0.630000
v -0.760725 0.586241 0.630000
v 0.760725 0.586241 0.630000
v -0.760725 3.054429 0.630000
v 0.468687 3.054429 0.630000
v -0.760725 1.047361 0.630000
v 0.468687 1.047361 0.630000
v -0.760725 3.054429 0.608867
v 0.468687 3.054429 0.608867
v -0.760725 1.047361 0.608867
v 0.468687 1.047361 0.608867
v -0.760725 3.054429 0.604302
v 0.468687 3.054429 0.604302
v -0.760725 1.047361 0.604302
v 0.468687 1.047361 0.604302
v -0.760725 0.586241 0.630000
v 0.760725 0.586241 0.630000
v -0.760725 1.047361 0.630000
v 0.760725 1.047361 0.630000
v -0.505364 0.649070 0.630000
v 0.505364 0.649070 0.630000
v -0.505364 0.984531 0.630000
v 0.505364 0.984531 0.630000
v -0.505364 0.525949 0.470084
v 0.505364 0.525949 0.470084
v -0.505364 0.861410 0.470084
v 0.505364 0.861410 0.470084
v -0.760725 3.054429 0.591560
v 0.468687 3.054429 0.591560
v -0.760725 1.047361 0.591560
v 0.468687 1.047361 0.591560
v -0.983084 0.000000 -0.614500
v 0.983084 0.000000 -0.614500
v -0.983084 3.135498 -0.614500
v 0.983084 3.135498 -0.614500
v -0.983084 0.000000 0.630000
v -0.983084 0.000000 -0.630000
v -0.983084 3.135498 0.630000
v -0.983084 3.135498 -0.630000
vt 0.925290 0.000273
vt 0.925290 0.179091
vt 0.919015 0.179091
vt 0.913488 0.000273
vt 0.913488 0.200257
vt 0.857352 0.200257
vt 0.918470 0.000273
vt 0.918470 0.253160
vt 0.914034 0.253160
vt 0.800671 0.200257
vt 0.800671 0.000273
vt 0.856807 0.000273
vt 0.500929 0.199123
vt 0.572308 0.199123
vt 0.572308 0.203584
vt 0.500929 0.224807
vt 0.551401 0.224807
vt 0.551401 0.231116
vt 0.500929 0.000273
vt 0.800126 0.000273
vt 0.800126 0.198577
vt 0.000273 0.496113
vt 0.199307 0.496113
vt 0.199307 0.792919
vt 0.996122 0.502337
vt 0.500929 0.502337
vt 0.199307 0.000273
vt 0.500384 0.000273
vt 0.500384 0.502337
vt 0.468563 0.336161
vt 0.468563 0.014415
vt 0.277637 0.014415
vt 0.199852 0.502337
vt 0.235209 0.406874
vt 0.468563 0.406874
vt 0.500929 0.204129
vt 0.925835 0.000273
vt 0.929613 0.000273
vt 0.929613 0.200528
vt 0.944489 0.999727
vt 0.940731 0.999727
vt 0.940731 0.657764
vt 0.945034 0.657764
vt 0.948792 0.657764
vt 0.948792 0.999727
vt 0.000273 0.793464
vt 0.002944 0.793464
vt 0.002944 0.935066
vt 0.005616 0.793464
vt 0.005616 0.935066
vt 0.910383 0.657764
vt 0.940186 0.657764
vt 0.940186 0.821684
vt 0.500929 0.249500
vt 0.525904 0.231661
vt 0.525904 0.285178
vt 0.551423 0.249500
vt 0.551423 0.303017
vt 0.526449 0.285178
vt 0.881958 0.657764
vt 0.909837 0.657764
vt 0.909837 0.833002
vt 0.881958 0.502882
vt 0.934573 0.502882
vt 0.934573 0.657219
vt 0.429671 0.343232
vt 0.274101 0.343232
vt 0.235209 0.336161
vt 0.274101 0.399803
vt 0.429671 0.399803
vt 0.199852 0.000273
vt 0.694149 0.818458
vt 0.881413 0.818458
vt 0.881413 0.502882
vt 0.881155 0.819608
vt 0.881155 0.501257
vt 0.693706 0.501257
vt 0.908729 0.068297
vt 0.908729 0.129091
vt 0.872084 0.129091
vt 0.500929 0.303562
vt 0.996122 0.303562
vt 0.000273 0.792919
vt 0.500929 0.198577
vt 0.919015 0.000273
vt 0.857352 0.000273
vt 0.914034 0.000273
vt 0.856807 0.200257
vt 0.500929 0.203584
vt 0.500929 0.231116
vt 0.000273 0.000273
vt 0.925835 0.200528
vt 0.944489 0.657764
vt 0.945034 0.999727
vt 0.000273 0.935066
vt 0.910383 0.821684
vt 0.500929 0.303017
vt 0.526449 0.231661
vt 0.881958 0.833002
vt 0.881958 0.657219
vt 0.277637 0.336161
vt 0.694149 0.502882
vt 0.693706 0.819609
vt 0.872084 0.068297
vn -1.000000 0.000000 0.000000
vn 0.000000 0.000000 -1.000000
vn 1.000000 0.000000 0.000000
vn 0.000000 0.000000 1.000000
vn 0.000000 -1.000000 0.000000
vn 0.000000 1.000000 0.000000
vn 0.000000 -0.792400 0.610000
vn 0.000000 0.792400 -0.610000
s off
f 6/1/1 2/2/1 1/3/1
f 7/4/2 3/5/2 2/6/2
f 8/7/3 4/8/3 3/9/3
f 5/10/4 1/11/4 4/12/4
f 2/13/5 3/14/5 4/15/5
f 7/16/6 6/17/6 5/18/6
f 11/19/5 12/20/5 10/21/5
f 14/22/6 16/23/6 15/24/6
f 15/25/3 49/25/3 47/26/3
f 12/27/3 16/23/3 14/22/3
f 13/28/4 9/29/4 21/30/4
f 9/29/4 13/28/4 53/28/4
f 13/28/4 19/31/4 20/32/4
f 10/33/4 18/34/4 17/35/4
f 22/36/4 21/36/4 33/36/4
f 22/37/6 26/38/6 25/39/6
f 20/40/1 24/41/1 26/42/1
f 21/43/3 25/44/3 23/45/3
f 19/46/5 23/47/5 24/48/5
f 26/38/6 30/38/6 29/39/6
f 30/38/6 46/38/6 45/39/6
f 24/41/1 28/41/1 30/42/1
f 25/44/3 29/44/3 27/45/3
f 23/47/5 27/49/5 28/50/5
f 21/36/4 17/36/4 31/36/4
f 17/36/4 18/36/4 32/36/4
f 37/51/7 41/52/7 42/53/7
f 35/54/3 39/55/3 41/56/3
f 42/57/1 40/58/1 36/59/1
f 36/60/8 40/61/8 39/62/8
f 40/63/4 42/64/4 41/65/4
f 37/66/4 38/67/4 34/68/4
f 34/68/4 38/67/4 36/69/4
f 35/70/4 37/66/4 33/30/4
f 36/69/4 35/70/4 31/35/4
f 14/71/4 20/32/4 34/68/4
f 45/72/4 46/73/4 44/74/4
f 28/41/1 44/41/1 46/42/1
f 29/44/3 45/44/3 43/45/3
f 27/49/5 43/49/5 44/50/5
f 30/75/4 28/76/4 27/77/4
f 47/78/2 49/79/2 50/80/2
f 12/27/1 48/27/1 50/23/1
f 16/23/5 50/23/5 49/24/5
f 11/19/6 47/19/6 48/20/6
f 51/81/1 53/82/1 54/25/1
f 15/25/4 11/26/4 52/26/4
f 13/83/4 15/24/4 54/24/4
f 11/19/4 9/84/4 51/84/4
f 5/85/1 6/1/1 1/3/1
f 6/86/2 7/4/2 2/6/2
f 7/87/3 8/7/3 3/9/3
f 8/88/4 5/10/4 4/12/4
f 1/89/5 2/13/5 4/15/5
f 8/90/6 7/16/6 5/18/6
f 9/84/5 11/19/5 10/21/5
f 13/83/6 14/22/6 15/24/6
f 11/26/3 15/25/3 47/26/3
f 10/91/3 12/27/3 14/22/3
f 21/30/4 19/31/4 13/28/4
f 9/29/4 17/35/4 21/30/4
f 51/29/4 9/29/4 53/28/4
f 14/71/4 13/28/4 20/32/4
f 9/29/4 10/33/4 17/35/4
f 34/36/4 22/36/4 33/36/4
f 21/92/6 22/37/6 25/39/6
f 22/93/1 20/40/1 26/42/1
f 19/94/3 21/43/3 23/45/3
f 20/95/5 19/46/5 24/48/5
f 25/39/6 26/38/6 29/39/6
f 29/39/6 30/38/6 45/39/6
f 26/42/1 24/41/1 30/42/1
f 23/45/3 25/44/3 27/45/3
f 24/48/5 23/47/5 28/50/5
f 33/36/4 21/36/4 31/36/4
f 31/36/4 17/36/4 32/36/4
f 38/96/7 37/51/7 42/53/7
f 37/97/3 35/54/3 41/56/3
f 38/98/1 42/57/1 36/59/1
f 35/99/8 36/60/8 39/62/8
f 39/100/4 40/63/4 41/65/4
f 33/30/4 37/66/4 34/68/4
f 32/34/4 34/68/4 36/69/4
f 31/35/4 35/70/4 33/30/4
f 32/34/4 36/69/4 31/35/4
f 34/68/4 10/33/4 14/71/4
f 34/68/4 32/34/4 18/34/4
f 20/32/4 22/101/4 34/68/4
f 34/68/4 18/34/4 10/33/4
f 43/102/4 45/72/4 44/74/4
f 30/42/1 28/41/1 46/42/1
f 27/45/3 29/44/3 43/45/3
f 28/50/5 27/49/5 44/50/5
f 29/103/4 30/75/4 27/77/4
f 48/104/2 47/78/2 50/80/2
f 16/23/1 12/27/1 50/23/1
f 15/24/5 16/23/5 49/24/5
f 12/20/6 11/19/6 48/20/6
f 52/26/1 51/81/1 54/25/1
f 54/25/4 15/25/4 52/26/4
f 53/83/4 13/83/4 54/24/4
f 52/19/4 11/19/4 51/84/4
