# Blender v2.73 (sub 0) OBJ File: 'desktop.blend'
# www.blender.org
v -0.500000 1.000000 0.500000
v 1.500000 1.000000 0.500000
v -0.500000 1.000000 -0.500000
v 1.500000 1.000000 -0.500000
v -0.500000 0.950000 0.500000
v 1.500000 0.950000 0.500000
v -0.500000 0.950000 -0.500000
v 1.500000 0.950000 -0.500000
v -0.433333 1.000000 -0.500000
v 1.433333 1.000000 -0.500000
v 1.433333 1.000000 0.500000
v -0.433333 1.000000 0.500000
v -0.433333 0.950000 0.500000
v 1.433333 0.950000 0.500000
v 1.433333 0.950000 -0.500000
v -0.433333 0.950000 -0.500000
v -0.500000 0.000000 0.500000
v 1.500000 0.000000 0.500000
v -0.500000 0.000000 -0.500000
v 1.500000 0.000000 -0.500000
v -0.433333 0.000000 0.500000
v 1.433333 0.000000 0.500000
v 1.433333 0.000000 -0.500000
v -0.433333 0.000000 -0.500000
v 1.433333 0.475000 -0.500000
v 1.433333 0.475000 0.500000
v 1.500000 0.475000 -0.500000
v 1.500000 0.475000 0.500000
v 0.873333 1.000000 -0.500000
v 0.873333 1.000000 0.500000
v 0.873333 0.950000 0.500000
v 0.873333 0.950000 -0.500000
v 0.873333 0.475000 -0.500000
v 0.873333 0.475000 0.500000
v 1.500000 0.522500 -0.500000
v 1.500000 0.493500 0.500000
v 1.433333 0.493500 0.500000
v 0.893333 1.000000 0.500000
v 0.893333 0.950000 0.500000
v 0.893333 1.000000 -0.500000
v 0.894333 0.494000 0.500000
v 1.433333 0.950000 -0.480000
v 1.433333 0.493500 -0.480000
v 0.893333 0.950000 -0.480000
v 0.894333 0.494000 -0.480000
v 1.430638 0.494500 0.500000
v 0.897028 0.495000 0.500000
v 1.430638 0.714500 0.500000
v 0.897028 0.715000 0.500000
v 1.430638 0.494500 0.470000
v 0.897028 0.495000 0.470000
v 1.430638 0.714500 0.470000
v 0.897028 0.715000 0.470000
v 1.430638 0.724500 0.500000
v 0.897028 0.725000 0.500000
v 1.430638 0.944500 0.500000
v 0.897028 0.945000 0.500000
v 1.430638 0.724500 0.470000
v 0.897028 0.725000 0.470000
v 1.430638 0.944500 0.470000
v 0.897028 0.945000 0.470000
vt 0.363291 0.436767
vt 0.725191 0.436767
vt 0.725191 0.448830
vt 0.000463 0.475325
vt 0.362364 0.475325
vt 0.362364 0.647228
vt 0.738263 0.200660
vt 0.726200 0.200660
vt 0.726200 0.191613
vt 0.363372 0.206993
vt 0.725276 0.206994
vt 0.725276 0.216041
vt 0.726122 0.462747
vt 0.738185 0.462747
vt 0.738185 0.471795
vt 0.725195 0.471795
vt 0.363291 0.471795
vt 0.363291 0.462747
vt 0.726118 0.395524
vt 0.738181 0.395524
vt 0.738181 0.404571
vt 0.726118 0.412037
vt 0.823831 0.412037
vt 0.823831 0.421085
vt 0.738267 0.216041
vt 0.726203 0.216041
vt 0.726203 0.206993
vt 0.599815 0.234637
vt 0.363372 0.234637
vt 0.363372 0.225589
vt 0.725191 0.832566
vt 0.363291 0.832566
vt 0.363291 0.746614
vt 0.363372 0.006738
vt 0.722888 0.003143
vt 0.722888 0.103807
vt 0.363291 0.449757
vt 0.725191 0.449757
vt 0.725191 0.461821
vt 0.000463 0.648155
vt 0.362364 0.648155
vt 0.362364 0.745868
vt 0.725191 0.410786
vt 0.725191 0.422850
vt 0.363291 0.422850
vt 0.725191 0.423777
vt 0.725191 0.435840
vt 0.363291 0.435840
vt 0.752180 0.104734
vt 0.764244 0.104734
vt 0.764244 0.190686
vt 0.740232 0.475326
vt 0.752296 0.475326
vt 0.752296 0.647228
vt 0.727242 0.475326
vt 0.739305 0.475326
vt 0.739305 0.647228
vt 0.363291 0.474487
vt 0.725191 0.474487
vt 0.725191 0.560439
vt 0.739190 0.104734
vt 0.751253 0.104734
vt 0.751253 0.190686
vt 0.725191 0.409860
vt 0.363291 0.409860
vt 0.363291 0.237957
vt 0.723815 0.095782
vt 0.735878 0.095782
vt 0.735878 0.099129
vt 0.363408 0.222620
vt 0.363372 0.216968
vt 0.687240 0.216970
vt 0.738263 0.190686
vt 0.726200 0.113330
vt 0.738263 0.104734
vt 0.726315 0.561366
vt 0.726315 0.647228
vt 0.363291 0.561378
vt 0.000545 0.000463
vt 0.362446 0.000588
vt 0.362364 0.237030
vt 0.362364 0.237957
vt 0.362364 0.474399
vt 0.000463 0.474399
vt 0.722499 0.736640
vt 0.820212 0.745687
vt 0.718880 0.745687
vt 0.600742 0.225589
vt 0.837184 0.225589
vt 0.837184 0.234636
vt 0.363372 0.206067
vt 0.363372 0.104734
vt 0.725273 0.104734
vt 0.000463 0.746795
vt 0.362364 0.746795
vt 0.362364 0.832746
vt 0.718880 0.734106
vt 0.718880 0.648155
vt 0.820212 0.648155
vt 0.363291 0.916096
vt 0.363291 0.833492
vt 0.725191 0.838740
vt 0.753222 0.475326
vt 0.765286 0.475326
vt 0.765286 0.557929
vt 0.000499 0.917204
vt 0.274443 0.917204
vt 0.274408 0.921985
vt 0.739108 0.395524
vt 0.742727 0.395524
vt 0.742727 0.404571
vt 0.717953 0.648155
vt 0.717953 0.745687
vt 0.363291 0.745687
vt 0.363291 0.917023
vt 0.717953 0.917023
vt 0.717953 0.999537
vt 0.355126 0.833673
vt 0.355126 0.916277
vt 0.000463 0.916277
vt 0.821528 0.083067
vt 0.723815 0.083067
vt 0.723996 0.000554
vt 0.692029 0.224662
vt 0.688230 0.221224
vt 0.789562 0.221224
vt 0.765171 0.190685
vt 0.765170 0.104734
vt 0.768971 0.108173
vt 0.822675 0.318509
vt 0.726118 0.318506
vt 0.726157 0.278697
vt 0.726155 0.359245
vt 0.726118 0.319436
vt 0.822675 0.319436
vt 0.775863 0.639401
vt 0.765006 0.639401
vt 0.765006 0.599592
vt 0.753222 0.599592
vt 0.764080 0.599592
vt 0.764080 0.639401
vt 0.822675 0.371956
vt 0.822675 0.382813
vt 0.726118 0.382813
vt 0.726118 0.371029
vt 0.726118 0.360172
vt 0.822675 0.360172
vt 0.822675 0.277770
vt 0.726118 0.277766
vt 0.726157 0.237957
vt 0.726155 0.461821
vt 0.726118 0.422012
vt 0.822675 0.422012
vt 0.764080 0.598665
vt 0.753222 0.598665
vt 0.753222 0.558856
vt 0.765006 0.558856
vt 0.775863 0.558856
vt 0.775863 0.598665
vt 0.822675 0.383740
vt 0.822675 0.394597
vt 0.726118 0.394597
vt 0.723815 0.094851
vt 0.723816 0.083994
vt 0.820373 0.083998
vt 0.363291 0.448830
vt 0.000463 0.647228
vt 0.738263 0.191613
vt 0.363372 0.216041
vt 0.726122 0.471795
vt 0.725195 0.462747
vt 0.726118 0.404571
vt 0.726118 0.421085
vt 0.738267 0.206993
vt 0.599815 0.225589
vt 0.725191 0.746614
vt 0.363382 0.000463
vt 0.363372 0.103808
vt 0.363291 0.461821
vt 0.000463 0.745868
vt 0.363291 0.410786
vt 0.363291 0.423777
vt 0.752180 0.190686
vt 0.740232 0.647228
vt 0.727242 0.647228
vt 0.363291 0.560439
vt 0.739190 0.190686
vt 0.725191 0.237957
vt 0.723815 0.099129
vt 0.687303 0.224662
vt 0.726200 0.190686
vt 0.726200 0.104734
vt 0.364789 0.561366
vt 0.364789 0.647228
vt 0.000463 0.236905
vt 0.000463 0.237957
vt 0.820212 0.736640
vt 0.718880 0.736640
vt 0.600742 0.234637
vt 0.725273 0.206067
vt 0.000463 0.832746
vt 0.820212 0.734106
vt 0.725191 0.916096
vt 0.753222 0.557929
vt 0.000463 0.921985
vt 0.739108 0.404571
vt 0.363291 0.648155
vt 0.363291 0.999537
vt 0.000463 0.833673
vt 0.821528 0.000463
vt 0.789562 0.224572
vt 0.768790 0.190685
vt 0.822714 0.278700
vt 0.822712 0.359245
vt 0.775863 0.599592
vt 0.753222 0.639401
vt 0.726118 0.371956
vt 0.822675 0.371029
vt 0.822714 0.237961
vt 0.822712 0.461821
vt 0.764080 0.558856
vt 0.765006 0.598665
vt 0.726118 0.383740
vt 0.820372 0.094855
vn 0.000000 1.000000 0.000000
vn 1.000000 0.000000 0.000000
vn 0.000000 0.000000 -1.000000
vn 0.000000 0.000000 1.000000
vn -1.000000 0.000000 0.000000
vn 0.000000 -1.000000 0.000000
vn 0.000900 1.000000 0.000000
vn 1.000000 0.002200 0.000000
vn -0.000900 -1.000000 0.000000
s off
f 2/1/1 4/2/1 10/3/1
f 21/4/2 24/5/2 16/6/2
f 16/7/3 7/8/3 3/9/3
f 6/10/2 8/11/2 4/12/2
f 14/13/4 6/14/4 2/15/4
f 7/16/5 5/17/5 1/18/5
f 5/19/4 13/20/4 12/21/4
f 39/22/4 14/23/4 11/24/4
f 8/25/3 15/26/3 10/27/3
f 32/28/3 16/29/3 9/30/3
f 23/31/5 22/32/5 26/33/5
f 39/34/6 32/35/6 15/36/6
f 12/37/1 9/38/1 3/39/1
f 11/40/1 10/41/1 40/42/1
f 23/43/6 20/44/6 18/45/6
f 19/46/6 24/47/6 21/48/6
f 20/49/3 23/50/3 25/51/3
f 17/52/4 21/53/4 13/54/4
f 24/55/3 19/56/3 7/57/3
f 18/58/2 20/59/2 27/60/2
f 22/61/4 18/62/4 28/63/4
f 19/64/5 17/65/5 5/66/5
f 26/67/4 28/68/4 36/69/4
f 36/70/2 28/71/2 27/72/2
f 15/73/3 35/74/3 25/75/3
f 15/76/5 25/77/5 37/78/5
f 30/79/1 29/80/1 9/81/1
f 16/82/6 32/83/6 31/84/6
f 40/85/3 15/86/3 32/87/3
f 13/88/4 31/89/4 30/90/4
f 26/91/6 34/92/6 33/93/6
f 31/94/5 32/95/5 33/96/5
f 33/97/3 32/98/3 15/99/3
f 6/100/2 36/101/2 35/102/2
f 37/103/4 36/104/4 6/105/4
f 38/106/1 40/107/1 29/108/1
f 31/109/4 39/110/4 38/111/4
f 43/112/7 45/113/7 41/114/7
f 41/115/8 45/116/8 44/117/8
f 42/118/5 43/119/5 37/120/5
f 42/121/4 44/122/4 45/123/4
f 41/124/4 34/125/4 26/126/4
f 31/127/4 34/128/4 41/129/4
f 48/130/4 49/131/4 47/132/4
f 51/133/3 53/134/3 52/135/3
f 49/136/5 53/137/5 51/138/5
f 46/139/2 50/140/2 52/141/2
f 48/142/7 52/143/7 53/144/7
f 47/145/9 51/146/9 50/147/9
f 56/148/4 57/149/4 55/150/4
f 59/151/3 61/152/3 60/153/3
f 57/154/5 61/155/5 59/156/5
f 54/157/2 58/158/2 60/159/2
f 56/160/7 60/161/7 61/162/7
f 55/163/9 59/164/9 58/165/9
f 11/166/1 2/1/1 10/3/1
f 13/167/2 21/4/2 16/6/2
f 9/168/3 16/7/3 3/9/3
f 2/169/2 6/10/2 4/12/2
f 11/170/4 14/13/4 2/15/4
f 3/171/5 7/16/5 1/18/5
f 1/172/4 5/19/4 12/21/4
f 38/173/4 39/22/4 11/24/4
f 4/174/3 8/25/3 10/27/3
f 29/175/3 32/28/3 9/30/3
f 25/176/5 23/31/5 26/33/5
f 32/35/6 39/34/6 31/177/6
f 39/34/6 15/36/6 14/178/6
f 1/179/1 12/37/1 3/39/1
f 38/180/1 11/40/1 40/42/1
f 22/181/6 23/43/6 18/45/6
f 17/182/6 19/46/6 21/48/6
f 27/183/3 20/49/3 25/51/3
f 5/184/4 17/52/4 13/54/4
f 16/185/3 24/55/3 7/57/3
f 28/186/2 18/58/2 27/60/2
f 26/187/4 22/61/4 28/63/4
f 7/188/5 19/64/5 5/66/5
f 37/189/4 26/67/4 36/69/4
f 35/190/2 36/70/2 27/72/2
f 35/74/3 15/73/3 8/191/3
f 35/74/3 27/192/3 25/75/3
f 37/78/5 14/193/5 15/76/5
f 25/77/5 26/194/5 37/78/5
f 12/195/1 30/79/1 9/81/1
f 13/196/6 16/82/6 31/84/6
f 15/86/3 40/85/3 10/197/3
f 40/85/3 32/87/3 29/198/3
f 12/199/4 13/88/4 30/90/4
f 25/200/6 26/91/6 33/93/6
f 34/201/5 31/94/5 33/96/5
f 25/202/3 33/97/3 15/99/3
f 8/203/2 6/100/2 35/102/2
f 14/204/4 37/103/4 6/105/4
f 30/205/1 38/106/1 29/108/1
f 30/206/4 31/109/4 38/111/4
f 37/207/7 43/112/7 41/114/7
f 39/208/8 41/115/8 44/117/8
f 14/209/5 42/118/5 37/120/5
f 43/210/4 42/121/4 45/123/4
f 37/211/4 41/124/4 26/126/4
f 39/212/4 31/127/4 41/129/4
f 46/213/4 48/130/4 47/132/4
f 50/214/3 51/133/3 52/135/3
f 47/215/5 49/136/5 51/138/5
f 48/216/2 46/139/2 52/141/2
f 49/217/7 48/142/7 53/144/7
f 46/218/9 47/145/9 50/147/9
f 54/219/4 56/148/4 55/150/4
f 58/220/3 59/151/3 60/153/3
f 55/221/5 57/154/5 59/156/5
f 56/222/2 54/157/2 60/159/2
f 57/223/7 56/160/7 61/162/7
f 54/224/9 55/163/9 58/165/9
