# Blender v2.73 (sub 0) OBJ File: 'fridge.blend'
# www.blender.org
v 2.000000 0.000000 -1.000000
v 2.000000 0.000000 0.900000
v -0.000000 0.000000 0.900000
v 0.000000 0.000000 -1.000000
v 2.000000 3.000000 -0.999999
v 1.999999 3.000000 0.900001
v -0.000000 3.000000 0.900000
v 0.000000 3.000000 -1.000000
v 1.994460 0.012475 0.897530
v 0.005540 0.012475 0.897530
v 1.994460 2.987525 0.897531
v 0.005539 2.987525 0.897530
v 1.994460 0.012475 1.002470
v 0.005540 0.012475 1.002470
v 1.994460 2.987525 1.002470
v 0.005539 2.987525 1.002470
v 0.249998 1.725203 0.998492
v 0.152950 1.725203 0.998492
v 0.249998 1.628154 0.998492
v 0.152950 1.628154 0.998492
v 0.249998 1.725203 1.098492
v 0.152950 1.725203 1.098492
v 0.249998 1.628154 1.098492
v 0.152950 1.628154 1.098492
v 0.249998 1.660386 1.177397
v 0.152950 1.660386 1.177397
v 0.249998 1.592971 1.098587
v 0.152950 1.592971 1.098587
v 0.249998 1.660386 1.177397
v 0.152950 1.660386 1.177397
v 0.249998 1.593079 1.177397
v 0.152950 1.593079 1.177397
v 0.249998 1.313387 1.098969
v 0.152950 1.313387 1.098969
v 0.249998 1.313495 1.177780
v 0.152950 1.313495 1.177780
vt 1.000000 0.333333
vt 1.000000 0.666667
vt 0.756410 0.666667
vt 1.000000 0.000000
vt 0.756410 0.333333
vt 0.256410 0.500000
vt 0.500000 0.500000
vt 0.500000 1.000000
vt 0.000000 0.500000
vt 0.000710 0.497921
vt 0.255700 0.497921
vt 0.756410 0.500000
vt 0.512821 0.500000
vt 0.512821 0.000000
vt 0.256410 0.000000
vt 0.000000 0.000000
vt 0.000710 0.002079
vt 0.255700 0.002079
vt 0.729503 0.831487
vt 0.716049 0.831487
vt 0.716049 0.500000
vt 0.729503 0.500000
vt 0.742956 0.500000
vt 0.742956 0.995842
vt 0.756410 0.995842
vt 0.702595 0.500000
vt 0.000000 0.995842
vt 0.254990 0.500000
vt 0.524884 0.684270
vt 0.512442 0.684270
vt 0.512442 0.668095
vt 0.512442 0.684762
vt 0.500000 0.684762
vt 0.516953 0.557815
vt 0.516953 0.541149
vt 0.529395 0.541149
vt 0.512442 0.604299
vt 0.512442 0.587633
vt 0.524884 0.587633
vt 0.512442 0.570966
vt 0.524884 0.570966
vt 0.512442 0.541133
vt 0.521085 0.527998
vt 0.524884 0.510979
vt 0.524884 0.527998
vt 0.512442 0.527998
vt 0.520752 0.557815
vt 0.512442 0.557815
vt 0.512442 0.563679
vt 0.500000 0.563679
vt 0.512442 0.500000
vt 0.512442 0.511218
vt 0.500000 0.511218
vt 0.520217 0.656877
vt 0.520227 0.668095
vt 0.510113 0.656874
vt 0.510104 0.621494
vt 0.500000 0.621498
vt 0.510113 0.610276
vt 0.520227 0.610280
vt 0.530331 0.626451
vt 0.520227 0.626451
vt 0.510113 0.668092
vt 0.500000 0.557815
vt 0.512442 0.610276
vt 0.500000 0.610276
vt 0.756410 0.000000
vt 0.256410 1.000000
vt 0.729503 0.995842
vt 0.702595 0.831487
vt 0.254990 0.995842
vt 0.524884 0.668095
vt 0.500000 0.668095
vt 0.529395 0.557815
vt 0.524884 0.604299
vt 0.512442 0.510979
vt 0.529395 0.570950
vt 0.530331 0.610276
vn 0.000000 -1.000000 0.000000
vn 0.000000 1.000000 -0.000000
vn 1.000000 0.000000 0.000000
vn -0.000000 -0.194200 0.981000
vn -1.000000 -0.000000 -0.000000
vn 0.000000 0.000000 -1.000000
vn 0.407200 0.000000 0.913300
vn -0.407200 -0.000000 0.913300
vn -0.000000 0.194200 0.981000
vn -0.000000 -0.000000 1.000000
vn 0.000000 0.772700 0.634700
vn 0.000000 -0.002700 -1.000000
vn 0.000000 -1.000000 0.001400
vn 0.000000 0.001400 1.000000
vn 0.000000 -0.001400 -1.000000
s off
f 2/1/1 3/2/1 4/3/1
f 5/4/2 8/1/2 7/5/2
f 5/6/3 6/7/3 2/8/3
f 7/9/4 12/10/4 11/11/4
f 7/12/5 8/13/5 4/14/5
f 1/13/6 4/6/6 8/15/6
f 3/16/7 10/17/7 12/10/7
f 2/15/8 6/6/8 11/11/8
f 2/15/9 9/18/9 10/17/9
f 12/19/2 16/20/2 15/21/2
f 10/22/5 14/23/5 16/24/5
f 11/23/3 15/12/3 13/25/3
f 9/26/1 13/21/1 14/20/1
f 13/27/10 15/9/10 16/28/10
f 19/29/6 20/30/6 18/31/6
f 19/31/1 23/32/1 24/33/1
f 20/34/5 24/35/5 22/36/5
f 18/37/2 22/38/2 21/39/2
f 17/38/3 21/40/3 23/41/3
f 24/35/5 28/42/5 26/43/5
f 22/44/11 26/45/11 25/46/11
f 23/41/3 21/40/3 25/47/3
f 23/48/12 27/49/12 28/50/12
f 25/16/10 26/16/10 30/16/10
f 30/51/10 32/52/10 31/53/10
f 32/54/5 30/55/5 28/56/5
f 31/57/3 27/58/3 29/59/3
f 28/56/5 34/59/5 36/60/5
f 33/61/13 35/62/13 36/60/13
f 27/58/3 31/57/3 35/63/3
f 32/52/14 36/48/14 35/64/14
f 27/49/15 33/65/15 34/66/15
f 1/5/1 2/1/1 4/3/1
f 6/67/2 5/4/2 7/5/2
f 1/68/3 5/6/3 2/8/3
f 6/6/4 7/9/4 11/11/4
f 3/67/5 7/12/5 4/14/5
f 5/14/6 1/13/6 8/15/6
f 7/9/7 3/16/7 12/10/7
f 9/18/8 2/15/8 11/11/8
f 3/16/9 2/15/9 10/17/9
f 11/22/2 12/19/2 15/21/2
f 12/69/5 10/22/5 16/24/5
f 9/24/3 11/23/3 13/25/3
f 10/70/1 9/26/1 14/20/1
f 14/71/10 13/27/10 16/28/10
f 17/72/6 19/29/6 18/31/6
f 20/73/1 19/31/1 24/33/1
f 18/74/5 20/34/5 22/36/5
f 17/75/2 18/37/2 21/39/2
f 19/39/3 17/38/3 23/41/3
f 22/36/5 24/35/5 26/43/5
f 21/76/11 22/44/11 25/46/11
f 27/77/3 23/41/3 25/47/3
f 24/64/12 23/48/12 28/50/12
f 29/16/10 25/16/10 30/16/10
f 29/7/10 30/51/10 31/53/10
f 32/54/5 28/56/5 36/60/5
f 34/78/13 33/61/13 36/60/13
f 33/73/3 27/58/3 35/63/3
f 31/53/14 32/52/14 35/64/14
f 28/50/15 27/49/15 34/66/15
