# Blender v2.70 (sub 0) OBJ File: 'radio.blend'
# www.blender.org
v -1.000000 0.000000 0.400000
v 1.000000 0.000000 0.400000
v -1.000000 0.000000 -0.400000
v 1.000000 0.000000 -0.400000
v -1.000000 1.158037 0.400000
v 1.000000 1.158037 0.400000
v -1.000000 1.158037 -0.400000
v 1.000000 1.158037 -0.400000
v -1.000000 1.331343 -0.408136
v 1.000000 1.331343 -0.408136
v -1.000000 1.331343 -0.223825
v 1.000000 1.331343 -0.223825
v -1.000000 1.172568 -0.408136
v 1.000000 1.172568 -0.408136
v -1.000000 1.172568 -0.223825
v 1.000000 1.172568 -0.223825
v -0.820504 1.331343 -0.408136
v 0.820504 1.331343 -0.408136
v 0.820504 1.331343 -0.223825
v -0.820504 1.331343 -0.223825
v -0.820504 1.172568 -0.408136
v 0.820504 1.172568 -0.408136
v 0.820504 1.172568 -0.223825
v -0.820504 1.172568 -0.223825
v -1.000000 1.331342 0.078603
v 1.000000 1.331342 0.078603
v -1.000000 1.172568 0.078603
v 1.000000 1.172568 0.078603
v 0.820504 1.331342 0.078603
v -0.820504 1.331342 0.078603
v 0.820504 1.172568 0.078603
v -0.820504 1.172568 0.078603
v -0.333333 0.000000 0.400000
v 0.333333 0.000000 0.400000
v 0.333333 0.000000 -0.400000
v -0.333333 0.000000 -0.400000
v -0.333333 1.158037 0.400000
v 0.333333 1.158037 0.400000
v 0.333333 1.158037 -0.400000
v -0.333333 1.158037 -0.400000
v -1.000000 0.000000 0.334414
v 1.000000 0.000000 0.334414
v -1.000000 1.158037 0.334414
v 1.000000 1.158037 0.334414
v -0.333333 0.000000 0.334414
v 0.333333 0.000000 0.334414
v -0.333333 1.158037 0.334414
v 0.333333 1.158037 0.334414
v 1.000000 1.118535 -0.400000
v -1.000000 1.118535 -0.400000
v 1.000000 1.118535 0.400000
v -1.000000 1.118535 0.400000
v 0.333333 1.118535 -0.400000
v -0.333333 1.118535 -0.400000
v -0.333333 1.118535 0.400000
v 0.333333 1.118535 0.400000
v 1.000000 1.118535 0.334414
v -1.000000 1.118535 0.334414
v 1.000000 0.073624 -0.400000
v 1.000000 0.073624 0.400000
v -1.000000 0.073624 0.400000
v -1.000000 0.073624 -0.400000
v 0.333333 0.073624 -0.400000
v -0.333333 0.073624 -0.400000
v -0.333333 0.073624 0.400000
v 0.333333 0.073624 0.400000
v 1.000000 0.073624 0.334414
v -1.000000 0.073624 0.334414
v -0.333333 0.579018 0.386320
v 0.333333 0.579018 0.386320
v 0.000000 0.000000 0.334414
v 0.000000 1.158037 0.334414
v -0.333333 1.119075 0.386320
v 0.333333 1.119075 0.386320
v -0.333333 0.073881 0.386320
v 0.333333 0.073881 0.386320
v 0.000000 0.073881 0.386320
v 0.000000 1.119075 0.386320
vt 0.272997 0.271751
vt 0.407638 0.271751
vt 0.407638 0.000623
vt 0.408884 0.000623
vt 0.408884 0.271751
vt 0.543526 0.271751
vt 0.850071 0.407638
vt 0.865287 0.407638
vt 0.865287 0.272997
vt 0.951239 0.271751
vt 0.966456 0.271751
vt 0.966456 0.000623
vt 0.914675 0.272997
vt 0.899459 0.272997
vt 0.899459 0.407638
vt 0.376558 0.848825
vt 0.391774 0.848825
vt 0.391774 0.816548
vt 0.339395 0.848825
vt 0.339395 0.816548
vt 0.272997 0.816548
vt 0.681258 0.746460
vt 0.747657 0.746460
vt 0.747657 0.714183
vt 0.680012 0.781230
vt 0.545370 0.781230
vt 0.545370 0.813507
vt 0.747657 0.680660
vt 0.681258 0.680660
vt 0.681258 0.712937
vt 0.847628 0.443604
vt 0.815351 0.443604
vt 0.815351 0.475881
vt 0.748903 0.747059
vt 0.781180 0.747059
vt 0.781180 0.680660
vt 0.848825 0.407638
vt 0.848825 0.375361
vt 0.782426 0.375361
vt 0.884143 0.815900
vt 0.884143 0.544772
vt 0.817744 0.544772
vt 0.814703 0.747059
vt 0.814703 0.680660
vt 0.782426 0.680660
vt 0.816548 0.271751
vt 0.882946 0.271751
vt 0.882946 0.000623
vt 0.814105 0.543526
vt 0.814105 0.408885
vt 0.781828 0.408885
vt 0.917716 0.271751
vt 0.949993 0.271751
vt 0.949993 0.000623
vt 0.848227 0.339395
vt 0.848227 0.307118
vt 0.815949 0.307118
vt 0.918912 0.815900
vt 0.951189 0.815900
vt 0.951189 0.544772
vt 0.847628 0.441162
vt 0.847628 0.408885
vt 0.815351 0.408885
vt 0.848227 0.305274
vt 0.848227 0.272997
vt 0.815949 0.272997
vt 0.747059 0.543526
vt 0.747059 0.408884
vt 0.714781 0.408884
vt 0.681258 0.813507
vt 0.815900 0.813507
vt 0.815900 0.781230
vt 0.747657 0.340043
vt 0.613015 0.340043
vt 0.613015 0.372320
vt 0.613015 0.338797
vt 0.747657 0.338797
vt 0.747657 0.306520
vt 0.680012 0.680660
vt 0.545370 0.680660
vt 0.545370 0.712937
vt 0.613015 0.305274
vt 0.747657 0.305274
vt 0.747657 0.272997
vt 0.544124 0.407638
vt 0.544124 0.272997
vt 0.272997 0.272997
vt 0.679414 0.271751
vt 0.679414 0.136187
vt 0.544772 0.271751
vt 0.271751 0.681258
vt 0.000623 0.681258
vt 0.000623 0.815900
vt 0.680934 0.544772
vt 0.816498 0.544772
vt 0.816498 0.679414
vt 0.271751 0.832362
vt 0.271751 0.817146
vt 0.137109 0.817146
vt 0.866533 0.407638
vt 0.881750 0.407638
vt 0.881750 0.272997
vt 0.914725 0.543526
vt 0.929941 0.543526
vt 0.929941 0.408884
vt 0.814703 0.339395
vt 0.814703 0.272997
vt 0.782426 0.272997
vt 0.747657 0.375361
vt 0.613015 0.375361
vt 0.613015 0.407638
vt 0.748305 0.543526
vt 0.780582 0.543526
vt 0.780582 0.408884
vt 0.357104 0.848825
vt 0.372320 0.848825
vt 0.372320 0.816548
vt 0.952435 0.815900
vt 0.967652 0.815900
vt 0.967652 0.544772
vt 0.545370 0.779984
vt 0.680012 0.779984
vt 0.680012 0.747707
vt 0.680012 0.714183
vt 0.545370 0.714183
vt 0.680012 0.730322
vt 0.748903 0.407638
vt 0.781180 0.407638
vt 0.781180 0.272997
vt 0.713535 0.408884
vt 0.713535 0.543526
vt 0.697397 0.543526
vt 0.544124 0.680660
vt 0.272997 0.680660
vt 0.272997 0.815302
vt 0.271751 0.000623
vt 0.000623 0.000623
vt 0.000623 0.271751
vt 0.272997 0.543526
vt 0.544124 0.543526
vt 0.544124 0.408884
vt 0.916470 0.271751
vt 0.916470 0.000623
vt 0.884193 0.000623
vt 0.544124 0.544772
vt 0.272997 0.544772
vt 0.272997 0.679414
vt 0.271751 0.545370
vt 0.000623 0.545370
vt 0.000623 0.680012
vt 0.815301 0.271751
vt 0.815301 0.000623
vt 0.680660 0.000623
vt 0.917666 0.815900
vt 0.917666 0.544772
vt 0.885389 0.544772
vt 0.000623 0.272997
vt 0.000623 0.544124
vt 0.271751 0.544124
vt 0.931187 0.543526
vt 0.946404 0.543526
vt 0.946404 0.408884
vt 0.968898 0.815900
vt 0.984114 0.815900
vt 0.984114 0.544772
vt 0.881800 0.543526
vt 0.897016 0.543526
vt 0.897016 0.408884
vt 0.340642 0.848825
vt 0.355858 0.848825
vt 0.355858 0.816548
vt 0.913478 0.408884
vt 0.898262 0.408884
vt 0.898262 0.543526
vt 0.865337 0.543526
vt 0.880553 0.543526
vt 0.880553 0.408884
vt 0.135265 0.832362
vt 0.135265 0.817146
vt 0.000623 0.817146
vt 0.393020 0.848825
vt 0.408236 0.848825
vt 0.408236 0.816548
vt 0.545370 0.814753
vt 0.545370 0.829969
vt 0.816498 0.829969
vt 0.410156 0.175781
vt 0.480469 0.175781
vt 0.480469 0.285156
vt 0.848825 0.340642
vt 0.782426 0.340642
vt 0.782426 0.372919
vt 0.681258 0.779984
vt 0.747657 0.779984
vt 0.747657 0.747707
vt 0.847628 0.543526
vt 0.847628 0.477127
vt 0.815351 0.477127
vt 0.915921 0.407638
vt 0.931137 0.407638
vt 0.931137 0.272997
vt 0.848874 0.408884
vt 0.856483 0.408884
vt 0.848874 0.543526
vt 0.898212 0.407638
vt 0.898212 0.272997
vt 0.882996 0.272997
vt 0.476804 0.816548
vt 0.544124 0.816548
vt 0.544124 0.831764
vt 0.967702 0.000623
vt 0.982918 0.000763
vt 0.967702 0.140681
vt 0.984168 0.271751
vt 0.984164 0.000623
vt 0.992025 0.000623
vt 0.272997 0.000623
vt 0.543526 0.000623
vt 0.850071 0.272997
vt 0.951239 0.000623
vt 0.914675 0.407638
vt 0.376558 0.816548
vt 0.272997 0.848825
vt 0.681258 0.714183
vt 0.680012 0.813507
vt 0.747657 0.712937
vt 0.847628 0.475881
vt 0.748903 0.680660
vt 0.782426 0.407638
vt 0.817744 0.815900
vt 0.782426 0.747059
vt 0.816548 0.000623
vt 0.781828 0.543526
vt 0.917716 0.000623
vt 0.815949 0.339395
vt 0.918912 0.544772
vt 0.815351 0.441162
vt 0.815949 0.305274
vt 0.714781 0.543526
vt 0.681258 0.781230
vt 0.747657 0.372320
vt 0.613015 0.306520
vt 0.680012 0.712937
vt 0.613015 0.272997
vt 0.272997 0.407638
vt 0.679414 0.000623
vt 0.544772 0.000623
vt 0.271751 0.815900
vt 0.545370 0.679414
vt 0.545370 0.544772
vt 0.137109 0.832362
vt 0.866533 0.272997
vt 0.914725 0.408884
vt 0.782426 0.339395
vt 0.747657 0.407638
vt 0.748305 0.408884
vt 0.357104 0.816548
vt 0.952435 0.544772
vt 0.545370 0.747707
vt 0.680012 0.746460
vt 0.545370 0.746460
vt 0.748903 0.272997
vt 0.681258 0.408884
vt 0.544124 0.815302
vt 0.271751 0.271751
vt 0.681258 0.543526
vt 0.272997 0.408884
vt 0.884193 0.271751
vt 0.544124 0.679414
vt 0.271751 0.680012
vt 0.680660 0.271751
vt 0.885389 0.815900
vt 0.271751 0.272997
vt 0.931187 0.408884
vt 0.968898 0.544772
vt 0.881800 0.408884
vt 0.340642 0.816548
vt 0.913478 0.543526
vt 0.865337 0.408884
vt 0.000623 0.832362
vt 0.393020 0.816548
vt 0.816498 0.814753
vt 0.480469 0.402344
vt 0.410156 0.402344
vt 0.335938 0.402344
vt 0.335938 0.285156
vt 0.335938 0.175781
vt 0.848825 0.372919
vt 0.681258 0.747707
vt 0.815351 0.543526
vt 0.915921 0.272997
vt 0.864091 0.408884
vt 0.864091 0.543526
vt 0.882996 0.407638
vt 0.409483 0.831764
vt 0.409483 0.816548
vt 0.967702 0.271684
vt 0.982918 0.271751
vt 0.999377 0.271751
vt 0.999377 0.000623
vn 0.000000 -1.000000 0.000000
vn 0.000000 1.000000 0.000000
vn 0.000000 0.000000 -1.000000
vn 1.000000 0.000000 0.000000
vn 0.000000 0.000000 1.000000
vn -1.000000 0.000000 0.000000
vn 0.000000 1.000000 0.000002
vn 0.000000 -1.000000 -0.000001
vn -1.000000 0.000001 0.000000
vn 0.000000 0.000001 -1.000000
vn 0.000000 -1.000000 -0.000002
vn 0.000000 -0.000001 1.000000
vn 0.000000 1.000000 0.000001
vn -1.000000 -0.000001 0.000000
vn 1.000000 0.000001 0.000000
vn 0.000000 0.574868 -0.818246
vn 0.000000 -0.799763 -0.600317
vn 0.000000 -0.999220 -0.039497
vn 0.000000 0.999823 0.018795
vn 0.000000 -1.000000 -0.000003
vn 0.000000 0.999823 0.018796
s off
f 35/1/1 4/2/1 42/3/1
f 44/4/2 8/5/2 39/6/2
f 50/7/3 7/8/3 40/9/3
f 49/10/4 8/11/4 44/12/4
f 51/13/5 6/14/5 38/15/5
f 52/16/6 5/17/6 43/18/6
f 19/19/7 12/20/7 10/21/7
f 14/22/8 16/23/8 23/24/8
f 23/25/9 31/26/9 29/27/9
f 10/28/4 12/29/4 16/30/4
f 10/31/10 14/32/10 22/33/10
f 9/34/6 13/35/6 15/36/6
f 11/37/7 20/38/7 17/39/7
f 20/40/7 19/41/7 18/42/7
f 21/43/8 24/44/8 15/45/8
f 22/46/11 23/47/11 24/48/11
f 20/49/4 30/50/4 32/51/4
f 20/52/12 24/53/12 23/54/12
f 17/55/10 21/56/10 13/57/10
f 18/58/10 22/59/10 21/60/10
f 25/61/12 27/62/12 32/63/12
f 29/64/12 31/65/12 28/66/12
f 16/67/8 28/68/8 31/69/8
f 19/70/13 29/71/13 26/72/13
f 15/73/14 27/74/14 25/75/14
f 12/76/15 26/77/15 28/78/15
f 24/79/8 32/80/8 27/81/8
f 11/82/13 25/83/13 30/84/13
f 3/85/1 36/86/1 45/87/1
f 46/88/1 71/89/1 35/90/1
f 47/91/2 40/92/2 7/93/2
f 72/94/2 48/95/2 39/96/2
f 53/97/3 39/98/3 8/99/3
f 54/100/3 40/101/3 39/102/3
f 55/103/5 37/104/5 5/105/5
f 71/106/16 45/107/16 75/108/16
f 46/109/1 42/110/1 2/111/1
f 6/112/2 44/113/2 48/114/2
f 57/115/4 44/116/4 6/117/4
f 58/118/6 43/119/6 7/120/6
f 41/121/1 45/122/1 33/123/1
f 46/124/1 34/125/1 71/126/1
f 37/127/2 47/128/2 43/129/2
f 38/130/2 48/131/2 72/132/2
f 62/133/3 50/134/3 54/135/3
f 59/136/4 49/137/4 57/138/4
f 60/139/5 51/140/5 56/141/5
f 61/142/6 52/143/6 58/144/6
f 63/145/3 53/146/3 49/147/3
f 64/148/3 54/149/3 53/150/3
f 65/151/5 55/152/5 52/153/5
f 67/154/4 57/155/4 51/156/4
f 68/157/6 58/158/6 50/159/6
f 3/160/3 62/161/3 64/162/3
f 4/163/4 59/164/4 67/165/4
f 2/166/5 60/167/5 66/168/5
f 1/169/6 61/170/6 68/171/6
f 35/172/3 63/173/3 59/174/3
f 36/175/3 64/176/3 63/177/3
f 33/178/5 65/179/5 61/180/5
f 42/181/4 67/182/4 60/183/4
f 41/184/6 68/185/6 62/186/6
f 77/187/5 76/188/5 70/189/5
f 46/190/16 71/191/16 77/192/16
f 78/193/17 73/194/17 47/195/17
f 74/196/17 78/197/17 72/198/17
f 37/199/5 55/200/5 56/201/5
f 73/202/18 78/203/18 55/204/18
f 66/205/5 65/206/5 33/207/5
f 77/208/19 75/209/19 65/210/19
f 73/211/4 55/212/4 69/213/4
f 56/214/6 74/215/6 70/216/6
f 46/217/1 35/1/1 42/3/1
f 48/218/2 44/4/2 39/6/2
f 54/219/3 50/7/3 40/9/3
f 57/220/4 49/10/4 44/12/4
f 56/221/5 51/13/5 38/15/5
f 58/222/6 52/16/6 43/18/6
f 18/223/13 19/19/13 10/21/13
f 22/224/20 14/22/20 23/24/20
f 19/225/14 23/25/14 29/27/14
f 14/226/4 10/28/4 16/30/4
f 18/227/10 10/31/10 22/33/10
f 11/228/6 9/34/6 15/36/6
f 9/229/13 11/37/13 17/39/13
f 17/230/7 20/40/7 18/42/7
f 13/231/20 21/43/20 15/45/20
f 21/232/11 22/46/11 24/48/11
f 24/233/15 20/49/15 32/51/15
f 19/234/12 20/52/12 23/54/12
f 9/235/10 17/55/10 13/57/10
f 17/236/10 18/58/10 21/60/10
f 30/237/12 25/61/12 32/63/12
f 26/238/12 29/64/12 28/66/12
f 23/239/8 16/67/8 31/69/8
f 12/240/7 19/70/7 26/72/7
f 11/241/9 15/73/9 25/75/9
f 16/242/4 12/76/4 28/78/4
f 15/243/8 24/79/8 27/81/8
f 20/244/7 11/82/7 30/84/7
f 41/245/1 3/85/1 45/87/1
f 71/89/1 45/246/1 36/247/1
f 43/248/2 47/91/2 7/93/2
f 40/249/2 47/250/2 72/94/2
f 71/89/1 36/247/1 35/90/1
f 49/251/3 53/97/3 8/99/3
f 72/94/2 39/96/2 40/249/2
f 53/252/3 54/100/3 39/102/3
f 52/253/5 55/103/5 5/105/5
f 77/254/16 71/106/16 75/108/16
f 34/255/1 46/109/1 2/111/1
f 38/256/2 6/112/2 48/114/2
f 51/257/4 57/115/4 6/117/4
f 50/258/6 58/118/6 7/120/6
f 1/259/1 41/121/1 33/123/1
f 45/260/1 71/126/1 33/261/1
f 5/262/2 37/127/2 43/129/2
f 71/126/1 34/125/1 33/261/1
f 38/130/2 72/132/2 37/263/2
f 64/264/3 62/133/3 54/135/3
f 67/265/4 59/136/4 57/138/4
f 72/132/2 47/266/2 37/263/2
f 66/267/5 60/139/5 56/141/5
f 68/268/6 61/142/6 58/144/6
f 59/269/3 63/145/3 49/147/3
f 63/270/3 64/148/3 53/150/3
f 61/271/5 65/151/5 52/153/5
f 60/272/4 67/154/4 51/156/4
f 62/273/6 68/157/6 50/159/6
f 36/274/3 3/160/3 64/162/3
f 42/275/4 4/163/4 67/165/4
f 34/276/5 2/166/5 66/168/5
f 41/277/6 1/169/6 68/171/6
f 4/278/3 35/172/3 59/174/3
f 35/279/3 36/175/3 63/177/3
f 1/280/5 33/178/5 61/180/5
f 2/281/4 42/181/4 60/183/4
f 3/282/6 41/184/6 62/186/6
f 70/189/5 74/283/5 78/284/5
f 78/284/5 73/285/5 69/286/5
f 69/286/5 75/287/5 77/187/5
f 76/288/16 46/190/16 77/192/16
f 70/189/5 78/284/5 69/286/5
f 69/286/5 77/187/5 70/189/5
f 72/289/17 78/193/17 47/195/17
f 48/290/17 74/196/17 72/198/17
f 38/291/5 37/199/5 56/201/5
f 78/203/18 74/292/18 56/293/18
f 34/294/5 66/205/5 33/207/5
f 66/295/19 76/296/19 77/208/19
f 78/203/18 56/293/18 55/204/18
f 75/297/4 69/213/4 65/298/4
f 77/208/21 65/210/21 66/295/21
f 56/214/6 70/216/6 66/299/6
f 69/213/4 55/212/4 65/298/4
f 70/216/6 76/300/6 66/299/6
