# Blender v2.73 (sub 0) OBJ File: 'gelaender.blend'
# www.blender.org
v -0.499000 0.000000 -0.300000
v -0.499000 0.880000 -0.300000
v -0.399000 0.880000 -0.300000
v -0.399000 0.000000 -0.300000
v -0.499000 0.000000 -0.200000
v -0.499000 0.780000 -0.200000
v -0.399000 0.780000 -0.200000
v -0.399000 0.000000 -0.200000
v -0.399000 -0.500000 0.200000
v -0.399000 0.380000 0.200000
v -0.499000 0.380000 0.200000
v -0.499000 -0.500000 0.200000
v -0.399000 -0.500000 0.100000
v -0.399000 0.480000 0.100000
v -0.499000 0.480000 0.100000
v -0.499000 -0.500000 0.100000
v -0.499000 1.113165 -0.533876
v -0.399000 1.113165 -0.533876
v -0.499000 1.183876 -0.463165
v -0.399000 1.183876 -0.463165
v -0.499000 0.114710 0.464579
v -0.399000 0.114710 0.464579
v -0.499000 0.185421 0.535290
v -0.399000 0.185421 0.535290
vt 0.438753 0.602816
vt 0.326375 0.683789
vt 0.418663 0.156799
vt 0.459763 0.618090
vt 0.365164 0.687864
vt 0.500132 0.220187
vt 0.436903 0.216552
vt 0.489616 0.161361
vt 0.708764 0.408261
vt 0.693974 0.445345
vt 0.676927 0.064688
vt 0.758974 0.397404
vt 0.728860 0.068702
vt 0.781697 0.355709
vt 0.742864 0.004854
vt 0.685831 0.000000
vt 0.000000 0.918330
vt 0.944949 0.237715
vt 1.000000 0.271696
vt 0.156243 0.949828
vt 0.955779 0.318867
vt 0.907263 0.287700
vt 0.099476 0.883294
vt 0.065458 1.000000
vn -1.000000 0.000000 0.000000
vn 0.000000 0.707100 0.707100
vn 1.000000 0.000000 0.000000
vn 0.000000 -1.000000 0.000000
vn 0.000000 0.000000 -1.000000
vn 0.000000 -0.000000 1.000000
vn 0.000000 0.707100 -0.707100
vn 0.000000 -0.707100 -0.707100
vn 0.000000 -0.707100 0.707100
s off
f 6/1/1 2/2/1 1/3/1
f 7/4/2 3/5/2 2/2/2
f 7/4/3 8/6/3 4/7/3
f 5/8/4 1/3/4 4/7/4
f 2/2/5 3/5/5 4/7/5
f 7/4/6 6/1/6 5/8/6
f 15/9/5 14/10/5 13/11/5
f 10/12/3 9/13/3 13/11/3
f 10/12/2 14/10/2 15/9/2
f 10/12/6 11/14/6 12/15/6
f 12/15/4 16/16/4 13/11/4
f 11/14/1 15/9/1 16/16/1
f 17/17/1 21/18/1 23/19/1
f 20/20/3 24/21/3 22/22/3
f 23/19/2 24/21/2 20/20/2
f 20/20/7 18/23/7 17/17/7
f 22/22/8 21/18/8 17/17/8
f 23/19/9 21/18/9 22/22/9
f 5/8/1 6/1/1 1/3/1
f 6/1/2 7/4/2 2/2/2
f 3/5/3 7/4/3 4/7/3
f 8/6/4 5/8/4 4/7/4
f 1/3/5 2/2/5 4/7/5
f 8/6/6 7/4/6 5/8/6
f 16/16/5 15/9/5 13/11/5
f 14/10/3 10/12/3 13/11/3
f 11/14/2 10/12/2 15/9/2
f 9/13/6 10/12/6 12/15/6
f 9/13/4 12/15/4 13/11/4
f 12/15/1 11/14/1 16/16/1
f 19/24/1 17/17/1 23/19/1
f 18/23/3 20/20/3 22/22/3
f 19/24/2 23/19/2 20/20/2
f 19/24/7 20/20/7 17/17/7
f 18/23/8 22/22/8 17/17/8
f 24/21/9 23/19/9 22/22/9
