# Blender v2.70 (sub 0) OBJ File: 'Tisch.blend'
# www.blender.org
v -0.715330 1.400000 0.715330
v 0.715330 1.400000 0.715330
v -0.715330 1.400000 -0.715330
v 0.715330 1.400000 -0.715330
v -0.715330 1.328467 0.715330
v 0.715330 1.328467 0.715330
v -0.715330 1.328467 -0.715330
v 0.715330 1.328467 -0.715330
vt -0.001659 1.001659
vt -0.001659 -0.001659
vt 1.001659 -0.001659
vt 0.008558 0.005006
vt 0.992323 0.005006
vt 0.992323 0.988771
vt 0.038003 0.025000
vt 0.038003 0.000000
vt 0.932696 0.000000
vt 0.030000 1.001137
vt 0.005000 1.001137
vt 0.005000 -0.001137
vt 0.005000 0.014563
vt 0.030000 0.014563
vt 0.030000 0.970437
vt 0.004447 0.006507
vt 0.029447 0.006507
vt 0.029447 0.990822
vt 1.001659 1.001659
vt 0.008558 0.988771
vt 0.932696 0.025000
vt 0.030000 -0.001137
vt 0.005000 0.970437
vt 0.004447 0.990822
vn 0.000000 -1.000000 0.000000
vn 0.000000 1.000000 0.000000
vn 0.000000 0.000000 1.000000
vn -1.000000 0.000000 0.000000
vn 0.000000 0.000000 -1.000000
vn 1.000000 0.000000 0.000000
s off
f 3/1/1 4/2/1 2/3/1
f 6/4/2 8/5/2 7/6/2
f 3/7/3 7/8/3 8/9/3
f 4/10/4 8/11/4 6/12/4
f 2/13/5 6/14/5 5/15/5
f 1/16/6 5/17/6 7/18/6
f 1/19/1 3/1/1 2/3/1
f 5/20/2 6/4/2 7/6/2
f 4/21/3 3/7/3 8/9/3
f 2/22/4 4/10/4 6/12/4
f 1/23/5 2/13/5 5/15/5
f 3/24/6 1/16/6 7/18/6
