# Blender v2.70 (sub 0) OBJ File: 'advent.blend'
# www.blender.org
v -1.000000 0.000000 -0.000001
v 1.000000 0.000000 -0.000001
v -1.000000 2.000000 0.000001
v 1.000000 2.000000 0.000001
v -1.000000 0.000000 -0.100001
v 1.000000 0.000000 -0.100001
v -1.000000 2.000000 -0.099999
v 1.000000 2.000000 -0.099999
v -0.900000 2.100000 -0.004999
v 0.900000 2.100000 -0.004999
v -0.900000 2.100000 -0.094999
v 0.900000 2.100000 -0.094999
v -0.900000 2.200000 -0.004999
v 0.900000 2.200000 -0.004999
v -0.900000 2.200000 -0.094999
v 0.900000 2.200000 -0.094999
v -0.810000 2.300000 -0.009499
v 0.810000 2.300000 -0.009499
v -0.810000 2.300000 -0.090499
v 0.810000 2.300000 -0.090499
v -0.648000 2.400000 -0.017599
v 0.648000 2.400000 -0.017599
v -0.648000 2.400000 -0.082399
v 0.648000 2.400000 -0.082399
vt 0.011719 0.757812
vt 0.238281 0.757812
vt 0.238281 0.984375
vt 0.054688 0.757812
vt 0.054688 0.535156
vt 0.281250 0.535156
vt 0.304688 0.757812
vt 0.304688 0.769531
vt 0.292969 0.769531
vt 0.281250 0.796875
vt 0.281250 0.566406
vt 0.292969 0.566406
vt 0.011719 0.984375
vt 0.238281 0.996094
vt 0.292969 0.757812
vt 0.292969 0.535156
vt 0.304688 0.535156
vt 0.304688 0.781250
vt 0.292969 0.781250
vt 0.281250 0.554688
vt 0.292969 0.554688
vt 0.042969 0.746094
vt 0.042969 0.546875
vt 0.246094 0.769531
vt 0.246094 0.972656
vt 0.304688 0.792969
vt 0.292969 0.792969
vt 0.281250 0.546875
vt 0.292969 0.546875
vt 0.035156 0.746094
vt 0.035156 0.546875
vt 0.257812 0.769531
vt 0.257812 0.972656
vt 0.304688 0.699219
vt 0.312500 0.699219
vt 0.312500 0.714844
vt 0.023438 0.738281
vt 0.023438 0.554688
vt 0.269531 0.781250
vt 0.269531 0.964844
vt 0.312500 0.550781
vt 0.312500 0.535156
vt 0.304688 0.550781
vt 0.011719 0.718750
vt 0.011719 0.574219
vt 0.281250 0.945312
vt 0.281250 0.757812
vt 0.011719 0.996094
vt 0.304688 0.714844
vn 0.000000 -0.000001 1.000000
vn 0.000000 0.000001 -1.000000
vn -0.707106 0.707107 0.000002
vn 1.000000 0.000000 0.000000
vn 0.000000 -1.000000 -0.000001
vn -1.000000 0.000000 0.000000
vn 0.707106 0.707107 0.000002
vn 0.000000 0.049939 -0.998752
vn 0.000000 0.049937 0.998752
vn -0.743294 0.668965 0.000000
vn 1.000000 -0.000001 0.000000
vn -0.525269 0.850936 0.000000
vn 0.743295 0.668964 0.000000
vn 0.000000 0.044955 -0.998989
vn 0.000000 0.044953 0.998989
vn 0.000000 1.000000 0.000000
vn 0.525269 0.850936 0.000000
vn 0.000000 0.080737 -0.996735
vn 0.000000 0.080735 0.996736
vn -0.707108 0.707106 0.000000
vn 0.707108 0.707106 0.000000
vn 0.000000 0.049938 -0.998752
vn -0.743294 0.668965 0.000002
vn 0.743294 0.668965 0.000002
vn 0.000000 0.044956 -0.998989
vn 0.000000 0.044954 0.998989
vn 0.000000 0.080736 -0.996735
s off
f 2/1/1 4/2/1 3/3/1
f 7/4/2 8/5/2 6/6/2
f 3/7/3 9/8/3 11/9/3
f 6/10/4 8/11/4 4/12/4
f 5/13/5 6/3/5 2/14/5
f 7/15/6 5/16/6 1/17/6
f 9/8/6 13/18/6 15/19/6
f 12/20/7 10/21/7 4/12/7
f 11/22/8 12/23/8 8/5/8
f 10/24/9 9/25/9 3/3/9
f 13/18/10 17/26/10 19/27/10
f 16/28/11 14/29/11 10/21/11
f 15/30/2 16/31/2 12/23/2
f 14/32/1 13/33/1 9/25/1
f 21/34/12 23/35/12 19/36/12
f 20/6/13 18/16/13 14/29/13
f 19/37/14 20/38/14 16/31/14
f 18/39/15 17/40/15 13/33/15
f 24/41/16 23/35/16 21/34/16
f 20/42/17 24/41/17 22/43/17
f 23/44/18 24/45/18 20/38/18
f 22/10/19 21/46/19 17/40/19
f 1/13/1 2/1/1 3/3/1
f 5/47/2 7/4/2 6/6/2
f 7/15/20 3/7/20 11/9/20
f 2/27/4 6/10/4 4/12/4
f 1/48/5 5/13/5 2/14/5
f 3/7/6 7/15/6 1/17/6
f 11/9/6 9/8/6 15/19/6
f 8/11/21 12/20/21 4/12/21
f 7/4/22 11/22/22 8/5/22
f 4/2/9 10/24/9 3/3/9
f 15/19/23 13/18/23 19/27/23
f 12/20/4 16/28/4 10/21/4
f 11/22/2 15/30/2 12/23/2
f 10/24/1 14/32/1 9/25/1
f 17/49/12 21/34/12 19/36/12
f 16/28/24 20/6/24 14/29/24
f 15/30/25 19/37/25 16/31/25
f 14/32/26 18/39/26 13/33/26
f 22/43/16 24/41/16 21/34/16
f 18/17/17 20/42/17 22/43/17
f 19/37/27 23/44/27 20/38/27
f 18/39/19 22/10/19 17/40/19
