# Blender v2.73 (sub 0) OBJ File: 'screen.blend'
# www.blender.org
v -0.240000 0.000000 0.160000
v 0.240000 0.000000 0.160000
v -0.240000 0.000000 -0.160000
v 0.240000 0.000000 -0.160000
v -0.240000 0.010000 0.160000
v 0.240000 0.010000 0.160000
v -0.240000 0.010000 -0.160000
v 0.240000 0.010000 -0.160000
v -0.048000 0.030000 0.032000
v 0.048000 0.030000 0.032000
v -0.048000 0.030000 -0.032000
v 0.048000 0.030000 -0.032000
v -0.028800 0.070000 0.019200
v 0.028800 0.070000 0.019200
v -0.028800 0.070000 -0.019200
v 0.028800 0.070000 -0.019200
v -0.028800 0.130000 0.019200
v 0.028800 0.130000 0.019200
v -0.028800 0.230000 -0.019200
v 0.028800 0.230000 -0.019200
v 0.500000 0.700000 0.060000
v -0.500000 0.700000 0.060000
v 0.500000 0.100000 0.060000
v -0.500000 0.100000 0.060000
v 0.500000 0.700000 0.020000
v -0.500000 0.700000 0.020000
v 0.500000 0.100000 0.020000
v -0.500000 0.100000 0.020000
v 0.300000 0.580000 -0.030000
v -0.300000 0.580000 -0.030000
v 0.300000 0.220000 -0.030000
v -0.300000 0.220000 -0.030000
v 0.475000 0.676000 0.060000
v -0.475000 0.676000 0.060000
v 0.475000 0.124000 0.060000
v -0.475000 0.124000 0.060000
v 0.475000 0.675000 0.056000
v -0.475000 0.675000 0.056000
v 0.475000 0.123000 0.056000
v -0.475000 0.123000 0.056000
vn 0.000000 -1.000000 0.000000
vn 0.000000 0.988000 -0.154400
vn 0.000000 0.000000 -1.000000
vn 1.000000 0.000000 0.000000
vn 0.000000 0.000000 1.000000
vn -1.000000 0.000000 0.000000
vn 0.000000 0.304800 -0.952400
vn 0.103600 0.994600 0.000000
vn 0.000000 0.988000 0.154400
vn -0.103600 0.994600 0.000000
vn 0.901500 0.432700 0.000000
vn 0.000000 0.304800 0.952400
vn -0.901500 0.432700 0.000000
vn 0.000000 0.358500 0.933500
vn -0.242500 0.000000 0.970100
vn 0.000000 1.000000 0.000000
vn 0.242500 0.000000 0.970100
vn 0.000000 0.384600 0.923100
vn 0.000000 -0.384600 0.923100
vn 0.000000 -0.970100 0.242500
vn 0.000000 0.970100 -0.242600
s off
f 3//1 4//1 2//1
f 7//2 11//2 12//2
f 3//3 7//3 8//3
f 4//4 8//4 6//4
f 2//5 6//5 5//5
f 1//6 5//6 7//6
f 11//7 15//7 16//7
f 8//8 12//8 10//8
f 6//9 10//9 9//9
f 5//10 9//10 11//10
f 15//3 19//3 20//3
f 12//11 16//11 14//11
f 10//12 14//12 13//12
f 9//13 13//13 15//13
f 18//14 20//14 19//14
f 16//4 20//4 18//4
f 14//5 18//5 17//5
f 15//6 13//6 17//6
f 23//3 35//3 33//3
f 25//15 29//15 31//15
f 21//6 25//6 27//6
f 24//4 28//4 26//4
f 23//16 27//16 28//16
f 22//1 26//1 25//1
f 31//5 29//5 30//5
f 26//17 28//17 32//17
f 27//18 31//18 32//18
f 26//19 30//19 29//19
f 22//3 34//3 36//3
f 24//3 36//3 35//3
f 21//3 33//3 34//3
f 35//4 39//4 37//4
f 36//6 34//6 38//6
f 36//20 40//20 39//20
f 33//21 37//21 38//21
f 39//3 40//3 38//3
f 1//1 3//1 2//1
f 8//2 7//2 12//2
f 4//3 3//3 8//3
f 2//4 4//4 6//4
f 1//5 2//5 5//5
f 3//6 1//6 7//6
f 12//7 11//7 16//7
f 6//8 8//8 10//8
f 5//9 6//9 9//9
f 7//10 5//10 11//10
f 16//3 15//3 20//3
f 10//11 12//11 14//11
f 9//12 10//12 13//12
f 11//13 9//13 15//13
f 17//14 18//14 19//14
f 14//4 16//4 18//4
f 13//5 14//5 17//5
f 19//6 15//6 17//6
f 21//3 23//3 33//3
f 27//15 25//15 31//15
f 23//6 21//6 27//6
f 22//4 24//4 26//4
f 24//16 23//16 28//16
f 21//1 22//1 25//1
f 32//5 31//5 30//5
f 30//17 26//17 32//17
f 28//18 27//18 32//18
f 25//19 26//19 29//19
f 24//3 22//3 36//3
f 23//3 24//3 35//3
f 22//3 21//3 34//3
f 33//4 35//4 37//4
f 40//6 36//6 38//6
f 35//20 36//20 39//20
f 34//21 33//21 38//21
f 37//3 39//3 38//3
