# Blender v2.73 (sub 0) OBJ File: 'Bankautomat.blend'
# www.blender.org
v 1.000000 0.000000 -1.000000
v 1.000000 0.000000 1.000000
v -1.000000 0.000000 1.000000
v -1.000000 0.000000 -1.000000
v 1.000000 2.000000 -0.999999
v 0.999999 2.000000 1.000000
v -1.000000 2.000000 1.000000
v -1.000000 2.000000 -1.000000
v 1.000000 4.000000 -0.999999
v 0.999999 4.000000 1.000000
v -1.000000 4.000000 1.000000
v -1.000000 4.000000 -1.000000
v 0.900000 2.000000 -0.900000
v 0.899999 2.000000 0.900001
v -0.900000 2.000000 0.900000
v -0.900000 2.000000 -0.900000
v 0.900000 3.000000 -0.900000
v 0.899999 3.900000 0.900001
v -0.900000 3.900000 0.900000
v -0.900000 3.000000 -0.900000
v 0.899999 2.360000 -0.099999
v -0.900000 2.360000 -0.100000
v 0.899999 3.460000 -0.099999
v -0.900000 3.460000 -0.100000
v 0.539999 2.580000 -0.100000
v -0.540000 2.580000 -0.100000
v 0.539999 3.240000 -0.100000
v -0.540000 3.240000 -0.100000
v 0.485999 2.613000 -0.200000
v -0.486000 2.613000 -0.200000
v 0.485999 3.207000 -0.200000
v -0.486000 3.207000 -0.200000
vt 0.000000 0.750000
vt 0.256410 0.750000
vt 0.256410 1.000000
vt 0.512820 0.750000
vt 0.269231 0.737500
vt 0.769231 0.250000
vt 0.512821 0.250000
vt 0.512821 0.000000
vt 0.000000 0.500000
vt 0.256410 0.500000
vt 0.000000 0.250000
vt 0.256410 0.250000
vt 0.512821 0.500000
vt 0.000000 0.000000
vt 0.256410 0.000000
vt 0.769231 0.500000
vt 0.964649 0.726558
vt 0.977470 0.739058
vt 0.977470 0.964058
vt 0.269231 0.512500
vt 0.500000 0.512500
vt 1.000000 0.726558
vt 0.769231 0.726558
vt 0.769231 0.601558
vt 0.769231 0.489058
vt 0.769231 0.251558
vt 1.000000 0.364058
vt 1.000000 0.251558
vt 0.769231 0.000000
vt 0.769231 0.750000
vt 0.946518 0.739058
vt 0.964649 0.976558
vt 0.910256 0.726558
vt 0.928387 0.726558
vt 0.928387 0.964058
vt 0.946518 0.976558
vt 0.928387 0.976558
vt 0.392670 0.750000
vt 0.392670 0.975000
vt 0.256410 0.975000
vt 0.797436 0.906558
vt 0.882051 0.906558
vt 0.910256 0.951558
vt 0.882051 0.771558
vt 0.797436 0.771558
vt 0.769231 0.951558
vt 0.495825 0.828375
vt 0.495825 0.754125
vt 0.510395 0.750000
vt 0.527391 0.754125
vt 0.527391 0.828375
vt 0.512821 0.832500
vt 0.495825 0.756750
vt 0.495825 0.878250
vt 0.482325 0.885000
vt 0.482325 0.750000
vt 0.468824 0.878250
vt 0.468824 0.871500
vt 0.392670 0.871500
vt 0.000000 1.000000
vt 0.500000 0.737500
vt 1.000000 0.489058
vt 1.000000 0.000000
vt 0.946518 0.964058
vt 0.910256 0.976558
vt 0.510395 0.832500
vt 0.468824 0.756750
vt 0.468824 0.750000
vn 0.000000 -1.000000 0.000000
vn 1.000000 0.000000 0.000000
vn -0.000000 0.000000 1.000000
vn -1.000000 -0.000000 -0.000000
vn 0.000000 0.000000 -1.000000
vn 0.000000 1.000000 0.000000
vn -0.000000 -0.894400 0.447200
vn -0.000000 -0.707100 0.707100
vn 0.707100 0.000000 0.707100
vn -0.707100 0.000000 0.707100
vn -0.000000 0.940900 0.338700
vn -0.879900 0.000000 0.475100
vn 0.879900 0.000000 0.475100
vn -0.000000 -0.949600 0.313400
vn -0.000000 0.949600 0.313400
s off
f 1/1/1 2/2/1 3/3/1
f 7/4/1 8/2/1 16/5/1
f 5/6/2 6/7/2 2/8/2
f 6/9/3 7/10/3 3/2/3
f 3/9/4 7/11/4 8/12/4
f 1/13/5 4/10/5 8/12/5
f 7/11/4 11/14/4 12/15/4
f 8/12/5 12/15/5 9/8/5
f 5/6/2 9/16/2 10/13/2
f 6/17/6 14/18/6 15/19/6
f 5/10/1 13/20/1 16/5/1
f 6/13/1 14/21/1 13/20/1
f 15/22/2 16/23/2 20/24/2
f 14/25/4 18/26/4 17/27/4
f 18/28/7 19/26/7 20/29/7
f 12/30/6 11/4/6 10/13/6
f 18/31/8 10/17/8 11/32/8
f 7/33/9 15/34/9 19/35/9
f 18/31/10 14/36/10 6/37/10
f 15/38/11 14/39/11 21/40/11
f 27/41/3 25/42/3 21/43/3
f 26/44/3 28/45/3 24/23/3
f 28/45/3 27/41/3 23/46/3
f 22/33/3 21/43/3 25/42/3
f 31/47/12 29/48/12 25/49/12
f 30/50/13 32/51/13 28/52/13
f 32/53/14 31/54/14 27/55/14
f 26/56/15 25/55/15 29/57/15
f 29/58/3 31/59/3 32/38/3
f 4/60/1 1/1/1 3/3/1
f 15/61/1 7/4/1 16/5/1
f 1/29/2 5/6/2 2/8/2
f 2/1/3 6/9/3 3/2/3
f 4/10/4 3/9/4 8/12/4
f 5/7/5 1/13/5 8/12/5
f 8/12/4 7/11/4 12/15/4
f 5/7/5 8/12/5 9/8/5
f 6/7/2 5/6/2 10/13/2
f 7/32/6 6/17/6 15/19/6
f 8/2/1 5/10/1 16/5/1
f 5/10/1 6/13/1 13/20/1
f 19/62/2 15/22/2 20/24/2
f 13/62/4 14/25/4 17/27/4
f 17/63/7 18/28/7 20/29/7
f 9/16/6 12/30/6 10/13/6
f 19/64/8 18/31/8 11/32/8
f 11/65/9 7/33/9 19/35/9
f 10/34/10 18/31/10 6/37/10
f 22/2/11 15/38/11 21/40/11
f 23/46/3 27/41/3 21/43/3
f 22/33/3 26/44/3 24/23/3
f 24/23/3 28/45/3 23/46/3
f 26/44/3 22/33/3 25/42/3
f 27/66/12 31/47/12 25/49/12
f 26/4/13 30/50/13 28/52/13
f 28/56/14 32/53/14 27/55/14
f 30/67/15 26/56/15 29/57/15
f 30/68/3 29/58/3 32/38/3
