# Blender v2.73 (sub 0) OBJ File: 'window.blend'
# www.blender.org
v -1.000000 0.000000 0.000000
v 1.000000 0.000000 0.000000
v -1.000000 2.000000 -0.000000
v 1.000000 2.000000 -0.000000
v -0.900000 0.100000 0.000000
v 0.900000 0.100000 0.000000
v -0.900000 1.900000 -0.000000
v 0.900000 1.900000 -0.000000
v -0.900000 0.100000 -0.100000
v 0.900000 0.100000 -0.100000
v -0.900000 1.900000 -0.100000
v 0.900000 1.900000 -0.100000
v -0.999000 0.001000 -0.100000
v 0.999000 0.001000 -0.100000
v -0.999000 1.999000 -0.100000
v 0.999000 1.999000 -0.100000
vt 0.000352 0.368577
vt 0.018781 0.350165
vt 0.350499 0.350165
vt 0.368928 0.368577
vt 0.350499 0.018763
vt 0.368928 0.000352
vt 0.018781 0.018763
vt 0.000352 0.000352
vt 0.000352 0.799914
vt 0.000352 0.769229
vt 0.332070 0.769229
vt 0.332070 0.800618
vt 0.332070 0.831303
vt 0.000352 0.831303
vt 0.332070 0.737840
vt 0.332070 0.768526
vt 0.000352 0.768526
vt 0.857928 0.663825
vt 0.827242 0.663825
vt 0.827242 0.332106
vt 0.350315 0.387507
vt 0.368559 0.369280
vt 0.368559 0.737137
vt 0.350315 0.718910
vt 0.000352 0.737137
vt 0.018596 0.718910
vt 0.000352 0.369280
vt 0.018596 0.387507
vt 0.732371 0.700683
vt 0.701685 0.700498
vt 0.701685 0.332291
vt 0.763760 0.700683
vt 0.733074 0.700498
vt 0.733074 0.332291
vt 0.826539 0.700683
vt 0.795853 0.700498
vt 0.795853 0.332291
vt 0.795149 0.700683
vt 0.764464 0.700498
vt 0.764464 0.332291
vt 0.332070 0.799914
vt 0.000352 0.800618
vt 0.000352 0.737840
vt 0.857928 0.332106
vt 0.732371 0.332106
vt 0.763760 0.332106
vt 0.826539 0.332106
vt 0.795149 0.332106
vn 0.000000 0.000000 1.000000
vn 0.000000 -1.000000 0.000000
vn -1.000000 -0.000000 0.000000
vn 0.000000 1.000000 0.000000
vn 1.000000 -0.000000 0.000000
vn 0.000000 -0.000000 -1.000000
vn 0.999900 -0.000000 -0.010000
vn 0.000000 0.999900 -0.010000
vn -0.999900 -0.000000 -0.010000
vn 0.000000 -1.000000 -0.010000
vn 0.000000 -0.999900 -0.010000
s off
f 3/1/1 7/2/1 8/3/1
f 4/4/1 8/3/1 6/5/1
f 2/6/1 6/5/1 5/7/1
f 1/8/1 5/7/1 7/2/1
f 7/9/2 11/10/2 12/11/2
f 8/12/3 12/13/3 10/14/3
f 6/15/4 10/16/4 9/17/4
f 5/18/5 9/19/5 11/20/5
f 11/21/6 15/22/6 16/23/6
f 12/24/6 16/23/6 14/25/6
f 10/26/6 14/25/6 13/27/6
f 9/28/6 13/27/6 15/22/6
f 2/29/7 14/30/7 16/31/7
f 4/32/8 16/33/8 15/34/8
f 3/35/9 15/36/9 13/37/9
f 1/38/10 13/39/10 14/40/10
f 4/4/1 3/1/1 8/3/1
f 2/6/1 4/4/1 6/5/1
f 1/8/1 2/6/1 5/7/1
f 3/1/1 1/8/1 7/2/1
f 8/41/2 7/9/2 12/11/2
f 6/42/3 8/12/3 10/14/3
f 5/43/4 6/15/4 9/17/4
f 7/44/5 5/18/5 11/20/5
f 12/24/6 11/21/6 16/23/6
f 10/26/6 12/24/6 14/25/6
f 9/28/6 10/26/6 13/27/6
f 11/21/6 9/28/6 15/22/6
f 4/45/7 2/29/7 16/31/7
f 3/46/8 4/32/8 15/34/8
f 1/47/9 3/35/9 13/37/9
f 2/48/11 1/38/11 14/40/11
