# Blender v2.70 (sub 0) OBJ File: 'modelSteeringWheel.blend'
# www.blender.org
mtllib modelSteeringWheelobj.mtl
v -0.110761 1.591736 -0.086836
v -0.150631 1.593785 -0.083606
v -0.188969 1.599853 -0.074041
v -0.224301 1.609708 -0.058509
v -0.255270 1.622970 -0.037606
v -0.280685 1.639129 -0.012135
v -0.299570 1.657565 0.016925
v -0.311200 1.677570 0.048456
v -0.315127 1.698374 0.081247
v -0.311200 1.719178 0.114039
v -0.299570 1.739182 0.145570
v -0.280685 1.757619 0.174629
v -0.255270 1.773778 0.200100
v -0.224301 1.787040 0.221003
v -0.188969 1.796894 0.236536
v -0.150631 1.802963 0.246101
v -0.110761 1.805012 0.249331
v -0.070891 1.802963 0.246101
v -0.032554 1.796894 0.236536
v 0.002778 1.787040 0.221003
v 0.033747 1.773778 0.200100
v 0.059163 1.757618 0.174629
v 0.078048 1.739182 0.145570
v 0.089677 1.719178 0.114039
v 0.093604 1.698374 0.081247
v 0.089677 1.677570 0.048456
v 0.078048 1.657565 0.016924
v 0.059162 1.639129 -0.012135
v 0.033747 1.622969 -0.037606
v 0.002778 1.609708 -0.058509
v -0.032554 1.599853 -0.074041
v -0.070892 1.593785 -0.083606
v -0.110761 1.625528 -0.108997
v -0.150631 1.627578 -0.105767
v -0.188969 1.633646 -0.096202
v -0.224301 1.643500 -0.080670
v -0.255270 1.656762 -0.059766
v -0.280685 1.672922 -0.034296
v -0.299570 1.691358 -0.005236
v -0.311200 1.711362 0.026295
v -0.315127 1.732166 0.059086
v -0.311200 1.752970 0.091878
v -0.299570 1.772975 0.123409
v -0.280685 1.791411 0.152468
v -0.255270 1.807570 0.177939
v -0.224301 1.820832 0.198843
v -0.188969 1.830687 0.214375
v -0.150631 1.836755 0.223940
v -0.110761 1.838804 0.227170
v -0.070891 1.836755 0.223940
v -0.032554 1.830687 0.214375
v 0.002778 1.820832 0.198842
v 0.033747 1.807570 0.177939
v 0.059163 1.791411 0.152468
v 0.078048 1.772975 0.123409
v 0.089677 1.752970 0.091878
v 0.093604 1.732166 0.059086
v 0.089677 1.711362 0.026295
v 0.078048 1.691358 -0.005236
v 0.059162 1.672921 -0.034296
v 0.033747 1.656762 -0.059767
v 0.002778 1.643500 -0.080670
v -0.032554 1.633646 -0.096202
v -0.070892 1.627578 -0.105767
v -0.110761 1.616369 -0.055530
v -0.142681 1.618009 -0.052944
v -0.173374 1.622867 -0.045286
v -0.201661 1.630757 -0.032851
v -0.226455 1.641374 -0.016116
v -0.246802 1.654312 0.004276
v -0.261922 1.669072 0.027541
v -0.271232 1.685087 0.052785
v -0.274376 1.701743 0.079038
v -0.271233 1.718399 0.105291
v -0.261922 1.734414 0.130535
v -0.246802 1.749174 0.153800
v -0.226455 1.762112 0.174191
v -0.201661 1.772729 0.190927
v -0.173374 1.780618 0.203362
v -0.142681 1.785477 0.211020
v -0.110761 1.787117 0.213605
v -0.078842 1.785477 0.211020
v -0.048148 1.780618 0.203362
v -0.019862 1.772729 0.190927
v 0.004932 1.762112 0.174191
v 0.025280 1.749174 0.153799
v 0.040399 1.734414 0.130534
v 0.049710 1.718398 0.105291
v 0.052854 1.701743 0.079038
v 0.049710 1.685087 0.052785
v 0.040399 1.669072 0.027541
v 0.025280 1.654312 0.004276
v 0.004932 1.641374 -0.016116
v -0.019862 1.630757 -0.032851
v -0.048149 1.622867 -0.045286
v -0.078842 1.618009 -0.052944
v -0.110761 1.643423 -0.073272
v -0.142681 1.645063 -0.070686
v -0.173374 1.649922 -0.063028
v -0.201661 1.657811 -0.050593
v -0.226455 1.668429 -0.033858
v -0.246802 1.681366 -0.013466
v -0.261922 1.696126 0.009799
v -0.271232 1.712141 0.035043
v -0.274376 1.728797 0.061296
v -0.271233 1.745453 0.087549
v -0.261922 1.761468 0.112793
v -0.246802 1.776228 0.136057
v -0.226455 1.789166 0.156449
v -0.201661 1.799783 0.173185
v -0.173374 1.807673 0.185620
v -0.142681 1.812531 0.193278
v -0.110761 1.814171 0.195863
v -0.078842 1.812531 0.193278
v -0.048148 1.807673 0.185620
v -0.019862 1.799783 0.173185
v 0.004932 1.789166 0.156449
v 0.025280 1.776228 0.136057
v 0.040399 1.761468 0.112792
v 0.049710 1.745453 0.087548
v 0.052854 1.728797 0.061296
v 0.049710 1.712141 0.035043
v 0.040399 1.696126 0.009799
v 0.025280 1.681366 -0.013466
v 0.004932 1.668428 -0.033858
v -0.019862 1.657811 -0.050593
v -0.048149 1.649922 -0.063028
v -0.078842 1.645063 -0.070686
v -0.098019 1.694183 0.064454
v -0.128712 1.699041 0.072111
v -0.098019 1.721237 0.046712
v -0.128712 1.726095 0.054369
v -0.113414 1.710585 0.095773
v -0.098295 1.695825 0.072508
v -0.113414 1.737639 0.078031
v -0.098295 1.722879 0.054766
v -0.127948 1.698729 0.079823
v -0.103155 1.709347 0.096558
v -0.127948 1.725783 0.062081
v -0.103155 1.736401 0.078816
vt 0.186125 0.889307
vt 0.186125 0.943877
vt 0.131556 0.943877
vt 0.131556 0.889307
vn 0.487259 0.335673 -0.806146
vn 0.575579 0.392468 -0.717368
vn 0.571154 -0.818873 0.056429
vn 0.131108 0.974456 0.182287
vn 0.000000 0.981231 0.192694
vn 0.000000 -0.228919 0.973418
vn -0.638447 -0.753380 0.157323
vn -0.641865 0.458266 -0.614795
vn -0.575579 0.392468 -0.717368
vn 0.641865 0.458266 -0.614795
vn 0.682699 0.530442 -0.502487
vn 0.680868 -0.681387 0.268502
vn -0.482528 -0.875332 -0.030366
vn -0.487259 0.335673 -0.806146
vn -0.381024 0.289804 -0.877957
vn -0.132878 -0.235786 0.962645
vn -0.131108 0.974456 0.182287
vn -0.258095 0.954192 0.151280
vn 0.695944 0.605945 -0.385296
vn 0.680868 0.681387 -0.268502
vn 0.682699 -0.530442 0.502487
vn -0.258095 -0.954192 -0.151280
vn -0.261391 0.256203 -0.930570
vn -0.132878 0.235786 -0.962645
vn -0.381024 -0.289804 0.877957
vn -0.376690 0.920865 0.100253
vn -0.482528 0.875332 0.030366
vn 0.638447 0.753380 -0.157323
vn 0.571154 0.818873 -0.056429
vn 0.575579 -0.392468 0.717368
vn -0.575579 -0.392468 0.717368
vn -0.571154 0.818873 -0.056429
vn -0.638447 0.753380 -0.157323
vn 0.132878 0.235786 -0.962645
vn 0.261391 0.256233 -0.930570
vn 0.258095 -0.954192 -0.151280
vn 0.482528 0.875332 0.030366
vn 0.376690 0.920865 0.100253
vn 0.381024 -0.289804 0.877957
vn -0.682699 -0.530442 0.502487
vn -0.680868 0.681387 -0.268532
vn -0.695944 0.605945 -0.385296
vn 0.381024 0.289804 -0.877957
vn 0.482528 -0.875332 -0.030366
vn 0.258095 0.954192 0.151280
vn 0.132878 -0.235786 0.962645
vn -0.680868 -0.681387 0.268502
vn -0.682699 0.530442 -0.502487
vn 0.638447 -0.753380 0.157323
vn -0.571154 -0.818873 0.056429
vn 0.695944 -0.605945 0.385296
vn -0.376690 -0.920865 -0.100253
vn -0.261391 -0.256233 0.930570
vn 0.641865 -0.458266 0.614795
vn -0.131108 -0.974456 -0.182287
vn 0.000000 0.228919 -0.973418
vn -0.487259 -0.335673 0.806146
vn 0.131108 -0.974456 -0.182287
vn 0.487259 -0.335673 0.806146
vn -0.641865 -0.458266 0.614795
vn 0.376690 -0.920865 -0.100253
vn 0.261391 -0.256203 0.930570
vn -0.695944 -0.605945 0.385296
vn -0.597339 -0.363262 0.714957
vn -0.591876 0.805475 -0.029511
vn -0.500473 0.863552 0.061251
vn 0.000000 -0.972625 -0.232246
vn 0.000000 0.189306 -0.981903
vn -0.138493 0.196661 -0.970611
vn 0.665334 -0.432325 0.608570
vn 0.597339 -0.363262 0.714957
vn 0.591876 0.805475 -0.029511
vn -0.707053 -0.507614 0.492294
vn -0.704733 0.663900 -0.250038
vn -0.661092 0.738090 -0.134617
vn 0.506333 -0.303262 0.807215
vn 0.396466 -0.254494 0.882046
vn 0.391095 0.910428 0.134648
vn 0.136326 -0.965636 -0.221229
vn 0.268197 -0.944731 -0.188452
vn 0.272256 0.218604 -0.937040
vn -0.704733 -0.663900 0.250038
vn -0.707053 0.507645 -0.492294
vn -0.720359 0.585955 -0.371014
vn 0.315317 0.909970 -0.269234
vn 0.721610 0.692251 0.005066
vn 0.722678 -0.272713 0.635060
vn 0.052339 0.529893 -0.846431
vn -0.071505 0.039766 -0.996643
vn -0.076937 -0.929319 -0.361095
vn -0.404218 0.791620 -0.458174
vn -0.783807 0.611591 -0.107608
vn -0.777947 -0.353496 0.519395
vn 0.591876 -0.805475 0.029511
vn 0.661092 -0.738090 0.134648
vn 0.665334 0.432325 -0.608570
vn -0.272256 -0.218604 0.937040
vn -0.268197 0.944731 0.188452
vn -0.136326 0.965636 0.221259
vn -0.391095 -0.910428 -0.134648
vn -0.396435 0.254494 -0.882046
vn -0.506333 0.303262 -0.807215
vn 0.704733 -0.663900 0.250038
vn 0.720359 -0.585955 0.371014
vn 0.720359 0.585955 -0.371014
vn -0.506333 -0.303262 0.807215
vn -0.391095 0.910428 0.134648
vn -0.136326 -0.965636 -0.221259
vn -0.272256 0.218604 -0.937040
vn 0.707053 -0.507645 0.492294
vn 0.661092 0.738090 -0.134617
vn -0.665334 -0.432325 0.608570
vn 0.500473 0.863552 0.061251
vn 0.138493 0.196661 -0.970611
vn -0.720359 -0.585955 0.371014
vn -0.120029 -0.542253 0.831568
vn -0.120487 0.981567 -0.148137
vn 0.386456 -0.834346 0.393048
vn 0.390088 0.703940 -0.593493
vn -0.198675 -0.964476 0.173956
vn -0.210456 0.561052 -0.800531
vn 0.319620 -0.625690 0.711539
vn 0.000000 -0.189306 0.981903
vn 0.000000 0.972625 0.232246
vn 0.039308 -0.990417 0.132359
vn 0.597339 0.363262 -0.714957
vn -0.138493 -0.196661 0.970611
vn -0.500473 -0.863552 -0.061251
vn 0.707053 0.507614 -0.492294
vn -0.396435 -0.254494 0.882046
vn -0.268197 -0.944731 -0.188452
vn 0.704733 0.663900 -0.250038
vn -0.403851 -0.751244 0.521989
vn 0.000000 -0.981231 -0.192694
vn -0.381024 -0.091861 0.919980
vn -0.382824 0.877590 0.288491
vn -0.243782 0.061953 -0.967834
vn -0.240516 -0.910062 -0.337474
vn 0.810633 -0.526414 0.256325
vn 0.818384 0.435469 -0.374920
usemtl Material.015
s 1
f 61/1/1 60/2/2 28/3/3
f 50/1/4 49/2/5 17/3/6
f 7/4/7 39/1/8 38/2/9
f 59/1/10 58/2/11 26/3/12
f 5/4/13 37/1/14 36/2/15
f 16/4/16 48/1/17 47/2/18
f 57/1/19 56/2/20 24/3/21
f 3/4/22 35/1/23 34/2/24
f 14/4/25 46/1/26 45/2/27
f 55/1/28 54/2/29 22/3/30
f 12/4/31 44/1/32 43/2/33
f 64/1/34 63/2/35 31/3/36
f 53/1/37 52/2/38 20/3/39
f 10/4/40 42/1/41 41/2/42
f 62/1/43 61/2/1 29/3/44
f 51/1/45 50/2/4 18/3/46
f 8/4/47 40/1/48 39/2/8
f 60/1/2 59/2/10 27/3/49
f 6/4/50 38/1/9 37/2/14
f 17/4/6 49/1/5 48/2/17
f 58/1/11 57/2/19 25/3/51
f 4/4/52 36/1/15 35/2/23
f 15/4/53 47/1/18 46/2/26
f 56/1/20 55/2/28 23/3/54
f 2/4/55 34/1/24 33/2/56
f 13/4/57 45/1/27 44/2/32
f 33/1/56 64/2/34 32/3/58
f 54/1/29 53/2/37 21/3/59
f 11/4/60 43/1/33 42/2/41
f 63/1/35 62/2/43 30/3/61
f 52/1/38 51/2/45 19/3/62
f 9/4/63 41/1/42 40/2/48
f 92/1/64 124/2/65 125/3/66
f 81/1/67 113/2/68 114/3/69
f 71/4/70 70/1/71 102/2/72
f 90/1/73 122/2/74 123/3/75
f 69/4/76 68/1/77 100/2/78
f 80/4/79 79/1/80 111/2/81
f 88/1/82 120/2/83 121/3/84
f 98/1/85 131/2/86 129/3/87
f 109/1/88 139/2/89 137/3/90
f 118/1/91 135/2/92 133/3/93
f 76/4/94 75/1/95 107/2/96
f 95/1/97 127/2/98 128/3/99
f 84/1/100 116/2/101 117/3/102
f 74/4/103 73/1/104 105/2/105
f 93/1/106 125/2/66 126/3/107
f 82/1/108 114/2/69 115/3/109
f 72/4/110 71/1/70 103/2/111
f 91/1/112 123/2/75 124/3/65
f 70/4/71 69/1/76 101/2/113
f 81/4/67 80/1/79 112/2/114
f 89/1/115 121/2/84 122/3/74
f 68/4/77 67/1/116 99/2/117
f 79/4/80 78/1/118 110/2/119
f 87/1/120 119/2/121 120/3/83
f 66/4/122 65/1/123 97/2/124
f 77/4/125 76/1/94 108/2/126
f 96/1/127 128/2/99 97/3/124
f 85/1/128 117/2/102 118/3/91
f 75/4/95 74/1/103 106/2/129
f 94/1/130 126/2/107 127/3/98
f 83/1/131 115/2/109 116/3/101
f 73/4/104 72/1/110 104/2/132
f 58/4/11 59/1/10 123/2/75
f 22/4/30 21/1/59 85/2/128
f 37/1/14 101/2/113 100/3/78
f 14/1/25 78/2/118 79/3/80
f 52/1/38 116/2/101 115/3/109
f 29/1/44 93/2/106 94/3/130
f 8/4/47 7/1/7 71/2/70
f 44/4/32 45/1/27 109/2/88
f 59/4/10 60/1/2 124/2/65
f 23/4/54 22/1/30 86/2/133
f 38/1/9 102/2/72 101/3/113
f 15/1/53 79/2/80 80/3/79
f 53/1/37 117/2/102 116/3/101
f 30/1/61 94/2/130 95/3/97
f 9/4/63 8/1/47 72/2/110
f 45/4/27 46/1/26 110/2/119
f 60/4/2 61/1/1 125/2/66
f 24/4/21 23/1/54 87/2/120
f 2/4/55 1/1/134 65/2/123
f 39/1/8 103/2/111 102/3/72
f 54/1/29 118/2/91 117/3/102
f 16/1/16 80/2/79 81/3/67
f 31/1/36 95/2/97 96/3/127
f 9/1/63 73/2/104 74/3/103
f 46/4/26 47/1/18 111/2/81
f 61/4/1 62/1/43 126/2/107
f 25/4/51 24/1/21 88/2/82
f 3/4/22 2/1/55 66/2/122
f 40/1/48 104/2/132 103/3/111
f 55/1/28 119/2/121 118/3/91
f 18/4/46 17/1/6 81/2/67
f 32/1/58 96/2/127 65/3/123
f 47/4/18 48/1/17 112/2/114
f 10/1/40 74/2/103 75/3/95
f 62/4/43 63/1/35 127/2/98
f 25/1/51 89/2/115 90/3/73
f 4/4/52 3/1/22 67/2/116
f 41/1/42 105/2/105 104/3/132
f 56/1/20 120/2/83 119/3/121
f 19/4/62 18/1/46 82/2/108
f 34/1/24 98/2/85 97/3/124
f 11/1/60 75/2/95 76/3/94
f 48/4/17 49/1/5 113/2/68
f 63/4/35 64/1/34 128/2/99
f 26/1/12 90/2/73 91/3/112
f 5/4/13 4/1/52 68/2/77
f 41/4/42 42/1/41 106/2/129
f 57/1/19 121/2/84 120/3/83
f 20/4/39 19/1/62 83/2/131
f 35/1/23 99/2/117 98/3/85
f 12/1/31 76/2/94 77/3/125
f 50/1/4 114/2/69 113/3/68
f 64/4/34 33/1/56 97/2/124
f 27/1/49 91/2/112 92/3/64
f 6/4/50 5/1/13 69/2/76
f 42/4/41 43/1/33 107/2/96
f 57/4/19 58/1/11 122/2/74
f 21/4/59 20/1/39 84/2/100
f 36/1/15 100/2/78 99/3/117
f 13/1/57 77/2/125 78/3/118
f 51/1/45 115/2/109 114/3/69
f 28/1/3 92/2/64 93/3/106
f 7/4/7 6/1/50 70/2/71
f 43/4/33 44/1/32 108/2/126
f 130/4/135 129/1/87 131/2/86
f 99/4/117 67/1/116 130/2/135
f 99/1/117 132/2/136 131/3/86
f 67/4/116 66/1/122 129/2/87
f 133/1/93 135/2/92 136/3/137
f 119/4/121 87/1/120 134/2/138
f 119/1/121 136/2/137 135/3/92
f 87/4/120 86/1/133 133/2/93
f 138/4/139 137/1/90 139/2/89
f 110/4/119 78/1/118 138/2/139
f 109/4/88 110/1/119 140/2/140
f 77/1/125 137/2/90 138/3/139
f 29/4/44 61/1/1 28/3/3
f 18/4/46 50/1/4 17/3/6
f 6/3/50 7/4/7 38/2/9
f 27/4/49 59/1/10 26/3/12
f 4/3/52 5/4/13 36/2/15
f 15/3/53 16/4/16 47/2/18
f 25/4/51 57/1/19 24/3/21
f 2/3/55 3/4/22 34/2/24
f 13/3/57 14/4/25 45/2/27
f 23/4/54 55/1/28 22/3/30
f 11/3/60 12/4/31 43/2/33
f 32/4/58 64/1/34 31/3/36
f 21/4/59 53/1/37 20/3/39
f 9/3/63 10/4/40 41/2/42
f 30/4/61 62/1/43 29/3/44
f 19/4/62 51/1/45 18/3/46
f 7/3/7 8/4/47 39/2/8
f 28/4/3 60/1/2 27/3/49
f 5/3/13 6/4/50 37/2/14
f 16/3/16 17/4/6 48/2/17
f 26/4/12 58/1/11 25/3/51
f 3/3/22 4/4/52 35/2/23
f 14/3/25 15/4/53 46/2/26
f 24/4/21 56/1/20 23/3/54
f 1/3/134 2/4/55 33/2/56
f 12/3/31 13/4/57 44/2/32
f 1/4/134 33/1/56 32/3/58
f 22/4/30 54/1/29 21/3/59
f 10/3/40 11/4/60 42/2/41
f 31/4/36 63/1/35 30/3/61
f 20/4/39 52/1/38 19/3/62
f 8/3/47 9/4/63 40/2/48
f 93/4/106 92/1/64 125/3/66
f 82/4/108 81/1/67 114/3/69
f 103/3/111 71/4/70 102/2/72
f 91/4/112 90/1/73 123/3/75
f 101/3/113 69/4/76 100/2/78
f 112/3/114 80/4/79 111/2/81
f 89/4/115 88/1/82 121/3/84
f 66/4/122 98/1/85 129/3/87
f 77/4/125 109/1/88 137/3/90
f 86/4/133 118/1/91 133/3/93
f 108/3/126 76/4/94 107/2/96
f 96/4/127 95/1/97 128/3/99
f 85/4/128 84/1/100 117/3/102
f 106/3/129 74/4/103 105/2/105
f 94/4/130 93/1/106 126/3/107
f 83/4/131 82/1/108 115/3/109
f 104/3/132 72/4/110 103/2/111
f 92/4/64 91/1/112 124/3/65
f 102/3/72 70/4/71 101/2/113
f 113/3/68 81/4/67 112/2/114
f 90/4/73 89/1/115 122/3/74
f 100/3/78 68/4/77 99/2/117
f 111/3/81 79/4/80 110/2/119
f 88/4/82 87/1/120 120/3/83
f 98/3/85 66/4/122 97/2/124
f 109/3/88 77/4/125 108/2/126
f 65/4/123 96/1/127 97/3/124
f 86/4/133 85/1/128 118/3/91
f 107/3/96 75/4/95 106/2/129
f 95/4/97 94/1/130 127/3/98
f 84/4/100 83/1/131 116/3/101
f 105/3/105 73/4/104 104/2/132
f 122/3/74 58/4/11 123/2/75
f 86/3/133 22/4/30 85/2/128
f 36/4/15 37/1/14 100/3/78
f 15/4/53 14/1/25 79/3/80
f 51/4/45 52/1/38 115/3/109
f 30/4/61 29/1/44 94/3/130
f 72/3/110 8/4/47 71/2/70
f 108/3/126 44/4/32 109/2/88
f 123/3/75 59/4/10 124/2/65
f 87/3/120 23/4/54 86/2/133
f 37/4/14 38/1/9 101/3/113
f 16/4/16 15/1/53 80/3/79
f 52/4/38 53/1/37 116/3/101
f 31/4/36 30/1/61 95/3/97
f 73/3/104 9/4/63 72/2/110
f 109/3/88 45/4/27 110/2/119
f 124/3/65 60/4/2 125/2/66
f 88/3/82 24/4/21 87/2/120
f 66/3/122 2/4/55 65/2/123
f 38/4/9 39/1/8 102/3/72
f 53/4/37 54/1/29 117/3/102
f 17/4/6 16/1/16 81/3/67
f 32/4/58 31/1/36 96/3/127
f 10/4/40 9/1/63 74/3/103
f 110/3/119 46/4/26 111/2/81
f 125/3/66 61/4/1 126/2/107
f 89/3/115 25/4/51 88/2/82
f 67/3/116 3/4/22 66/2/122
f 39/4/8 40/1/48 103/3/111
f 54/4/29 55/1/28 118/3/91
f 82/3/108 18/4/46 81/2/67
f 1/4/134 32/1/58 65/3/123
f 111/3/81 47/4/18 112/2/114
f 11/4/60 10/1/40 75/3/95
f 126/3/107 62/4/43 127/2/98
f 26/4/12 25/1/51 90/3/73
f 68/3/77 4/4/52 67/2/116
f 40/4/48 41/1/42 104/3/132
f 55/4/28 56/1/20 119/3/121
f 83/3/131 19/4/62 82/2/108
f 33/4/56 34/1/24 97/3/124
f 12/4/31 11/1/60 76/3/94
f 112/3/114 48/4/17 113/2/68
f 127/3/98 63/4/35 128/2/99
f 27/4/49 26/1/12 91/3/112
f 69/3/76 5/4/13 68/2/77
f 105/3/105 41/4/42 106/2/129
f 56/4/20 57/1/19 120/3/83
f 84/3/100 20/4/39 83/2/131
f 34/4/24 35/1/23 98/3/85
f 13/4/57 12/1/31 77/3/125
f 49/4/5 50/1/4 113/3/68
f 128/3/99 64/4/34 97/2/124
f 28/4/3 27/1/49 92/3/64
f 70/3/71 6/4/50 69/2/76
f 106/3/129 42/4/41 107/2/96
f 121/3/84 57/4/19 122/2/74
f 85/3/128 21/4/59 84/2/100
f 35/4/23 36/1/15 99/3/117
f 14/4/25 13/1/57 78/3/118
f 50/4/4 51/1/45 114/3/69
f 29/4/44 28/1/3 93/3/106
f 71/3/70 7/4/7 70/2/71
f 107/3/96 43/4/33 108/2/126
f 132/3/136 130/4/135 131/2/86
f 132/3/136 99/4/117 130/2/135
f 98/4/85 99/1/117 131/3/86
f 130/3/135 67/4/116 129/2/87
f 134/4/138 133/1/93 136/3/137
f 136/3/137 119/4/121 134/2/138
f 118/4/91 119/1/121 135/3/92
f 134/3/138 87/4/120 133/2/93
f 140/3/140 138/4/139 139/2/89
f 140/3/140 110/4/119 138/2/139
f 139/3/89 109/4/88 140/2/140
f 78/4/118 77/1/125 138/3/139
v -0.110761 0.726764 0.858183
v -0.110761 1.699683 0.058540
v -0.106562 0.726992 0.858408
v -0.106562 1.699911 0.058765
v -0.102524 0.727667 0.859074
v -0.102524 1.700586 0.059430
v -0.098803 0.728763 0.860155
v -0.098803 1.701681 0.060511
v -0.095541 0.730237 0.861610
v -0.095541 1.703156 0.061966
v -0.092864 0.732034 0.863382
v -0.092864 1.704953 0.063739
v -0.090875 0.734084 0.865405
v -0.090875 1.707003 0.065761
v -0.089650 0.736309 0.867599
v -0.089650 1.709227 0.067956
v -0.089236 0.738622 0.869882
v -0.089236 1.711541 0.070238
v -0.089650 0.740935 0.872164
v -0.089650 1.713854 0.072520
v -0.090875 0.743160 0.874359
v -0.090875 1.716078 0.074715
v -0.092864 0.745210 0.876381
v -0.092864 1.718128 0.076738
v -0.095541 0.747007 0.878154
v -0.095541 1.719925 0.078510
v -0.098803 0.748481 0.879609
v -0.098803 1.721400 0.079965
v -0.102524 0.749577 0.880690
v -0.102524 1.722496 0.081046
v -0.106562 0.750252 0.881355
v -0.106562 1.723170 0.081712
v -0.110761 0.750480 0.881580
v -0.110761 1.723398 0.081937
v -0.114961 0.750252 0.881355
v -0.114961 1.723170 0.081712
v -0.118999 0.749577 0.880690
v -0.118999 1.722496 0.081046
v -0.122720 0.748481 0.879609
v -0.122720 1.721400 0.079965
v -0.125982 0.747007 0.878154
v -0.125982 1.719925 0.078510
v -0.128659 0.745210 0.876381
v -0.128659 1.718128 0.076738
v -0.130648 0.743160 0.874359
v -0.130648 1.716078 0.074715
v -0.131873 0.740935 0.872164
v -0.131873 1.713854 0.072520
v -0.132286 0.738622 0.869882
v -0.132286 1.711541 0.070238
v -0.131873 0.736309 0.867599
v -0.131873 1.709227 0.067956
v -0.130648 0.734084 0.865405
v -0.130648 1.707003 0.065761
v -0.128659 0.732034 0.863382
v -0.128659 1.704953 0.063739
v -0.125982 0.730237 0.861610
v -0.125982 1.703156 0.061966
v -0.122720 0.728763 0.860155
v -0.122720 1.701681 0.060511
v -0.118999 0.727667 0.859074
v -0.118999 1.700586 0.059430
v -0.114961 0.726992 0.858408
v -0.114961 1.699911 0.058765
vn 0.000000 -0.997650 -0.068422
vn 0.000000 0.022004 -0.999756
vn 0.105472 0.026826 -0.994049
vn 0.115207 -0.991394 -0.061983
vn 0.212256 0.041932 -0.976287
vn 0.230903 -0.972045 -0.042055
vn 0.321055 0.069063 -0.944517
vn 0.346904 -0.937864 -0.006684
vn 0.430891 0.111240 -0.895505
vn 0.461074 -0.886105 0.047121
vn 0.537797 0.172246 -0.825251
vn 0.567980 -0.813807 0.122837
vn 0.633045 0.255379 -0.730735
vn 0.657857 -0.719443 0.222663
vn 0.703146 0.360607 -0.612751
vn 0.717246 -0.605701 0.344432
vn 0.733665 0.481552 -0.479354
vn 0.733696 -0.481552 0.479324
vn 0.717246 0.605701 -0.344462
vn 0.703146 -0.360576 0.612781
vn 0.657857 0.719443 -0.222663
vn 0.633076 -0.255379 0.730735
vn 0.567980 0.813807 -0.122837
vn 0.537797 -0.172246 0.825251
vn 0.461074 0.886074 -0.047121
vn 0.430891 -0.111240 0.895505
vn 0.346934 0.937834 0.006653
vn 0.321055 -0.069063 0.944517
vn 0.230903 0.972045 0.042055
vn 0.212256 -0.041932 0.976287
vn 0.115177 0.991394 0.061983
vn 0.105472 -0.026826 0.994049
vn 0.000000 0.997650 0.068422
vn -0.115177 0.991394 0.061983
vn -0.105472 -0.026826 0.994049
vn -0.230903 0.972045 0.042055
vn -0.212256 -0.041932 0.976287
vn -0.346934 0.937834 0.006653
vn -0.321055 -0.069063 0.944517
vn -0.461074 0.886074 -0.047121
vn -0.430891 -0.111240 0.895505
vn -0.567980 0.813807 -0.122837
vn -0.537797 -0.172246 0.825251
vn -0.657857 0.719443 -0.222663
vn -0.633076 -0.255379 0.730735
vn -0.717246 0.605701 -0.344462
vn -0.703146 -0.360607 0.612812
vn -0.733665 0.481552 -0.479385
vn -0.733696 -0.481552 0.479324
vn -0.703146 0.360607 -0.612781
vn -0.717246 -0.605670 0.344432
vn -0.633045 0.255379 -0.730735
vn -0.657857 -0.719443 0.222633
vn -0.537797 0.172246 -0.825251
vn -0.567980 -0.813807 0.122837
vn -0.430891 0.111240 -0.895505
vn -0.461074 -0.886105 0.047121
vn -0.321024 0.069063 -0.944517
vn -0.346904 -0.937864 -0.006684
vn -0.212256 0.041932 -0.976287
vn -0.230934 -0.972045 -0.042055
vn -0.105472 0.026826 -0.994049
vn -0.115207 -0.991394 -0.061983
vn 0.000000 -0.022004 0.999756
usemtl Material.014
s 1
f 141//141 142//142 144//143
f 143//144 144//143 146//145
f 145//146 146//145 148//147
f 147//148 148//147 150//149
f 149//150 150//149 152//151
f 151//152 152//151 154//153
f 153//154 154//153 156//155
f 155//156 156//155 158//157
f 157//158 158//157 160//159
f 159//160 160//159 162//161
f 161//162 162//161 164//163
f 163//164 164//163 166//165
f 165//166 166//165 168//167
f 167//168 168//167 170//169
f 169//170 170//169 172//171
f 171//172 172//171 174//173
f 174//173 176//174 175//175
f 176//174 178//176 177//177
f 178//176 180//178 179//179
f 180//178 182//180 181//181
f 182//180 184//182 183//183
f 184//182 186//184 185//185
f 186//184 188//186 187//187
f 188//186 190//188 189//189
f 190//188 192//190 191//191
f 192//190 194//192 193//193
f 194//192 196//194 195//195
f 196//194 198//196 197//197
f 198//196 200//198 199//199
f 200//198 202//200 201//201
f 168//167 166//165 150//149
f 204//202 142//142 141//141
f 202//200 204//202 203//203
f 179//179 199//199 201//201
f 143//144 141//141 144//143
f 145//146 143//144 146//145
f 147//148 145//146 148//147
f 149//150 147//148 150//149
f 151//152 149//150 152//151
f 153//154 151//152 154//153
f 155//156 153//154 156//155
f 157//158 155//156 158//157
f 159//160 157//158 160//159
f 161//162 159//160 162//161
f 163//164 161//162 164//163
f 165//166 163//164 166//165
f 167//168 165//166 168//167
f 169//170 167//168 170//169
f 171//172 169//170 172//171
f 173//204 171//172 174//173
f 173//204 174//173 175//175
f 175//175 176//174 177//177
f 177//177 178//176 179//179
f 179//179 180//178 181//181
f 181//181 182//180 183//183
f 183//183 184//182 185//185
f 185//185 186//184 187//187
f 187//187 188//186 189//189
f 189//189 190//188 191//191
f 191//191 192//190 193//193
f 193//193 194//192 195//195
f 195//195 196//194 197//197
f 197//197 198//196 199//199
f 199//199 200//198 201//201
f 142//142 174//173 144//143
f 202//200 178//176 204//202
f 203//203 204//202 141//141
f 194//192 184//182 196//194
f 190//188 188//186 192//190
f 194//192 192//190 186//184
f 204//202 176//174 174//173
f 152//151 150//149 164//163
f 142//142 204//202 174//173
f 146//145 144//143 170//169
f 192//190 188//186 186//184
f 160//159 156//155 154//153
f 158//157 156//155 160//159
f 162//161 160//159 154//153
f 184//182 182//180 196//194
f 180//178 178//176 200//198
f 168//167 148//147 170//169
f 194//192 186//184 184//182
f 144//143 172//171 170//169
f 174//173 172//171 144//143
f 200//198 198//196 182//180
f 182//180 198//196 196//194
f 201//201 202//200 203//203
f 150//149 166//165 164//163
f 204//202 178//176 176//174
f 164//163 162//161 154//153
f 148//147 168//167 150//149
f 180//178 200//198 182//180
f 148//147 146//145 170//169
f 178//176 202//200 200//198
f 152//151 164//163 154//153
f 143//144 171//172 141//141
f 153//154 155//156 159//160
f 163//164 165//166 151//152
f 165//166 149//150 151//152
f 155//156 157//158 159//160
f 193//193 195//195 185//185
f 147//148 149//150 167//168
f 201//201 203//203 177//177
f 175//175 203//203 173//204
f 179//179 201//201 177//177
f 195//195 197//197 183//183
f 187//187 189//189 191//191
f 169//170 171//172 143//144
f 199//199 179//179 197//197
f 185//185 187//187 191//191
f 203//203 175//175 177//177
f 161//162 153//154 159//160
f 193//193 185//185 191//191
f 169//170 145//146 167//168
f 163//164 151//152 153//154
f 161//162 163//164 153//154
f 197//197 181//181 183//183
f 179//179 181//181 197//197
f 203//203 141//141 173//204
f 145//146 147//148 167//168
f 195//195 183//183 185//185
f 145//146 169//170 143//144
f 149//150 165//166 167//168
f 141//141 171//172 173//204
